<?xml version="1.0" encoding="utf-8"?>
<!-- Generator: Adobe Illustrator 26.2.1, SVG Export Plug-In . SVG Version: 6.00 Build 0)  -->
<svg version="1.1" id="Layer_2" xmlns="http://www.w3.org/2000/svg" xmlns:xlink="http://www.w3.org/1999/xlink" x="0px" y="0px"
	 viewBox="0 0 740.25 388.11" style="enable-background:new 0 0 740.25 388.11;" xml:space="preserve">
<style type="text/css">
	.st0{fill:none;stroke:#49704D;stroke-width:3.1961;stroke-miterlimit:10;}
	.st1{fill:none;stroke:#4C0E7C;stroke-width:3.1961;stroke-miterlimit:10;}
	.st2{fill:#FFFFFF;stroke:#FFFFFF;stroke-width:3.1961;stroke-miterlimit:10;}
</style>
<g>
	<path class="st0" d="M11.99,371c0,0-2.17-133.72,128.04-239.77"/>
	<path class="st0" d="M20.61,369.8c0,0,8.53-159.38,202.02-276.45"/>
	<path class="st0" d="M17.71,364.71c0,0,19.93-164.27,322.74-300.98"/>
	<path class="st0" d="M25.22,371.35c0,0,114.54-249.97,458.86-333.15"/>
	<path class="st0" d="M33.37,374.61c0,0,131.2-264.38,556.6-341.29"/>
	<path class="st0" d="M25.2,379.05c0,0,133.9-197.74,439.72-265.67"/>
	<path class="st0" d="M38.43,379.4c0,0,139.09-136.95,284.82-186.93"/>
	<path class="st0" d="M47.18,386.97c0,0,73.48-71.77,169.61-107.15"/>
	<g>
		<g>
			
				<ellipse transform="matrix(0.9187 -0.3949 0.3949 0.9187 -39.5231 69.3106)" class="st1" cx="148.63" cy="130.68" rx="3.94" ry="0.82"/>
			
				<ellipse transform="matrix(0.6026 -0.798 0.798 0.6026 -41.573 161.2782)" class="st1" cx="141.16" cy="122.38" rx="3.94" ry="0.82"/>
			
				<ellipse transform="matrix(0.8096 -0.587 0.587 0.8096 -46.5537 109.1322)" class="st1" cx="144.96" cy="126.33" rx="3.94" ry="0.82"/>
			
				<ellipse transform="matrix(0.9187 -0.3949 0.3949 0.9187 -36.0497 71.7295)" class="st1" cx="156.25" cy="123.45" rx="3.94" ry="0.82"/>
			
				<ellipse transform="matrix(0.6026 -0.798 0.798 0.6026 -32.7785 164.4814)" class="st1" cx="148.77" cy="115.15" rx="3.94" ry="0.82"/>
			
				<ellipse transform="matrix(0.8096 -0.587 0.587 0.8096 -40.861 112.2247)" class="st1" cx="152.57" cy="119.1" rx="3.94" ry="0.82"/>
		</g>
		<g>
			
				<ellipse transform="matrix(0.9187 -0.3949 0.3949 0.9187 -33.7638 74.1051)" class="st1" cx="163.16" cy="119.08" rx="3.94" ry="0.82"/>
			
				<ellipse transform="matrix(0.6026 -0.798 0.798 0.6026 -26.5468 168.2645)" class="st1" cx="155.69" cy="110.79" rx="3.94" ry="0.82"/>
			
				<ellipse transform="matrix(0.8096 -0.587 0.587 0.8096 -36.982 115.4521)" class="st1" cx="159.48" cy="114.74" rx="3.94" ry="0.82"/>
			
				<ellipse transform="matrix(0.9187 -0.3949 0.3949 0.9187 -30.2904 76.524)" class="st1" cx="170.78" cy="111.85" rx="3.94" ry="0.82"/>
			
				<ellipse transform="matrix(0.6026 -0.798 0.798 0.6026 -17.7523 171.4676)" class="st1" cx="163.3" cy="103.56" rx="3.94" ry="0.82"/>
			
				<ellipse transform="matrix(0.8096 -0.587 0.587 0.8096 -31.2892 118.5446)" class="st1" cx="167.1" cy="107.51" rx="3.94" ry="0.82"/>
		</g>
		<g>
			
				<ellipse transform="matrix(0.9972 -0.0752 0.0752 0.9972 -7.7777 13.4269)" class="st1" cx="174.31" cy="109.94" rx="3.94" ry="0.82"/>
			
				<ellipse transform="matrix(0.8291 -0.5592 0.5592 0.8291 -26.6796 112.0571)" class="st1" cx="169.93" cy="99.66" rx="3.94" ry="0.82"/>
			
				<ellipse transform="matrix(0.9563 -0.2923 0.2923 0.9563 -23.0626 54.9237)" class="st1" cx="172.24" cy="104.63" rx="3.94" ry="0.82"/>
			
				<ellipse transform="matrix(0.9972 -0.0752 0.0752 0.9972 -7.4221 14.133)" class="st1" cx="183.86" cy="105.57" rx="3.94" ry="0.82"/>
			
				<ellipse transform="matrix(0.8291 -0.5592 0.5592 0.8291 -22.6059 116.6497)" class="st1" cx="179.48" cy="95.3" rx="3.94" ry="0.82"/>
			
				<ellipse transform="matrix(0.9563 -0.2923 0.2923 0.9563 -21.3691 57.5243)" class="st1" cx="181.79" cy="100.26" rx="3.94" ry="0.82"/>
		</g>
		
			<ellipse transform="matrix(0.9927 -0.1207 0.1207 0.9927 -11.0349 23.8125)" class="st1" cx="191.11" cy="103.02" rx="3.94" ry="0.82"/>
		
			<ellipse transform="matrix(0.8027 -0.5964 0.5964 0.8027 -18.6895 129.4362)" class="st1" cx="186.27" cy="92.96" rx="3.94" ry="0.82"/>
		<ellipse transform="matrix(0.942 -0.3357 0.3357 0.942 -21.88 69.0506)" class="st1" cx="188.8" cy="97.82" rx="3.94" ry="0.82"/>
		<g>
			
				<ellipse transform="matrix(0.9927 -0.1207 0.1207 0.9927 -10.3878 24.9043)" class="st1" cx="200.45" cy="98.23" rx="3.94" ry="0.82"/>
			
				<ellipse transform="matrix(0.8027 -0.5964 0.5964 0.8027 -13.9855 134.0594)" class="st1" cx="195.61" cy="88.17" rx="3.94" ry="0.82"/>
			
				<ellipse transform="matrix(0.942 -0.3357 0.3357 0.942 -19.7278 71.907)" class="st1" cx="198.14" cy="93.02" rx="3.94" ry="0.82"/>
		</g>
		<g>
			
				<ellipse transform="matrix(0.9927 -0.1207 0.1207 0.9927 -9.9553 25.6563)" class="st1" cx="206.87" cy="95.03" rx="3.94" ry="0.82"/>
			
				<ellipse transform="matrix(0.8027 -0.5964 0.5964 0.8027 -10.8118 137.2609)" class="st1" cx="202.03" cy="84.97" rx="3.94" ry="0.82"/>
			
				<ellipse transform="matrix(0.942 -0.3357 0.3357 0.942 -18.2824 73.8784)" class="st1" cx="204.57" cy="89.82" rx="3.94" ry="0.82"/>
		</g>
	</g>
	<g>
		
			<ellipse transform="matrix(0.9785 -0.2061 0.2061 0.9785 -14.4548 49.9567)" class="st1" cx="232.58" cy="94.37" rx="3.94" ry="0.82"/>
		
			<ellipse transform="matrix(0.7481 -0.6636 0.6636 0.7481 0.91 171.9191)" class="st1" cx="226.89" cy="84.76" rx="3.94" ry="0.82"/>
		
			<ellipse transform="matrix(0.9094 -0.4159 0.4159 0.9094 -16.352 103.6834)" class="st1" cx="229.83" cy="89.38" rx="3.94" ry="0.82"/>
		
			<ellipse transform="matrix(0.9785 -0.2061 0.2061 0.9785 -13.1126 51.6686)" class="st1" cx="241.47" cy="88.78" rx="3.94" ry="0.82"/>
		
			<ellipse transform="matrix(0.7481 -0.6636 0.6636 0.7481 6.8571 176.4104)" class="st1" cx="235.78" cy="79.17" rx="3.94" ry="0.82"/>
		
			<ellipse transform="matrix(0.9094 -0.4159 0.4159 0.9094 -13.223 106.8742)" class="st1" cx="238.72" cy="83.79" rx="3.94" ry="0.82"/>
	</g>
	<g>
		
			<ellipse transform="matrix(0.9785 -0.2061 0.2061 0.9785 -12.3473 53.1803)" class="st1" cx="249.11" cy="85.86" rx="3.94" ry="0.82"/>
		
			<ellipse transform="matrix(0.7481 -0.6636 0.6636 0.7481 10.7179 180.7449)" class="st1" cx="243.42" cy="76.26" rx="3.94" ry="0.82"/>
		
			<ellipse transform="matrix(0.9094 -0.4159 0.4159 0.9094 -11.3175 109.7871)" class="st1" cx="246.36" cy="80.87" rx="3.94" ry="0.82"/>
		
			<ellipse transform="matrix(0.9785 -0.2061 0.2061 0.9785 -11.0051 54.8923)" class="st1" cx="258" cy="80.27" rx="3.94" ry="0.82"/>
		
			<ellipse transform="matrix(0.7481 -0.6636 0.6636 0.7481 16.665 185.2362)" class="st1" cx="252.31" cy="70.67" rx="3.94" ry="0.82"/>
		
			<ellipse transform="matrix(0.9094 -0.4159 0.4159 0.9094 -8.1885 112.9778)" class="st1" cx="255.25" cy="75.29" rx="3.94" ry="0.82"/>
	</g>
	<g>
		
			<ellipse transform="matrix(0.9982 -0.0597 0.0597 0.9982 -4.0896 16.0432)" class="st1" cx="266.51" cy="76.48" rx="3.94" ry="0.82"/>
		
			<ellipse transform="matrix(0.8377 -0.5462 0.5462 0.8377 6.4533 153.9963)" class="st1" cx="262.3" cy="66.14" rx="3.94" ry="0.82"/>
		
			<ellipse transform="matrix(0.9608 -0.2774 0.2774 0.9608 -9.3532 76.1707)" class="st1" cx="264.53" cy="71.14" rx="3.94" ry="0.82"/>
		
			<ellipse transform="matrix(0.9982 -0.0597 0.0597 0.9982 -3.8208 16.6095)" class="st1" cx="276.13" cy="72.26" rx="3.94" ry="0.82"/>
		
			<ellipse transform="matrix(0.8377 -0.5462 0.5462 0.8377 10.3172 158.5633)" class="st1" cx="271.91" cy="61.92" rx="3.94" ry="0.82"/>
		
			<ellipse transform="matrix(0.9608 -0.2774 0.2774 0.9608 -7.8062 78.6723)" class="st1" cx="274.15" cy="66.93" rx="3.94" ry="0.82"/>
	</g>
	<g>
		
			<ellipse transform="matrix(0.0773 -0.997 0.997 0.0773 216.7838 362.8899)" class="st1" cx="304.45" cy="64.32" rx="0.82" ry="3.94"/>
		
			<ellipse transform="matrix(0.9045 -0.4265 0.4265 0.9045 5.9999 133.7949)" class="st1" cx="301.69" cy="53.5" rx="3.94" ry="0.82"/>
		
			<ellipse transform="matrix(0.9897 -0.1435 0.1435 0.9897 -5.2935 44.1083)" class="st1" cx="303.22" cy="58.76" rx="3.94" ry="0.82"/>
	</g>
	<g>
		
			<ellipse transform="matrix(0.0773 -0.997 0.997 0.0773 226.6907 370.0372)" class="st1" cx="313.27" cy="62.54" rx="0.82" ry="3.94"/>
		
			<ellipse transform="matrix(0.9045 -0.4265 0.4265 0.9045 7.6008 137.3849)" class="st1" cx="310.51" cy="51.72" rx="3.94" ry="0.82"/>
		
			<ellipse transform="matrix(0.9897 -0.1435 0.1435 0.9897 -4.9471 45.3545)" class="st1" cx="312.03" cy="56.98" rx="3.94" ry="0.82"/>
	</g>
	<g>
		
			<ellipse transform="matrix(0.0773 -0.997 0.997 0.0773 193.1859 347.5412)" class="st1" cx="284.36" cy="69.4" rx="0.82" ry="3.94"/>
		
			<ellipse transform="matrix(0.9045 -0.4265 0.4265 0.9045 1.9157 125.7099)" class="st1" cx="281.6" cy="58.58" rx="3.94" ry="0.82"/>
		
			<ellipse transform="matrix(0.9897 -0.1435 0.1435 0.9897 -6.2294 41.2784)" class="st1" cx="283.13" cy="63.84" rx="3.94" ry="0.82"/>
	</g>
	<g>
		
			<ellipse transform="matrix(0.0773 -0.997 0.997 0.0773 205.6263 355.1959)" class="st1" cx="294.72" cy="66.5" rx="0.82" ry="3.94"/>
		
			<ellipse transform="matrix(0.9045 -0.4265 0.4265 0.9045 4.1395 129.8506)" class="st1" cx="291.96" cy="55.68" rx="3.94" ry="0.82"/>
		
			<ellipse transform="matrix(0.9897 -0.1435 0.1435 0.9897 -5.7071 42.7341)" class="st1" cx="293.48" cy="60.94" rx="3.94" ry="0.82"/>
	</g>
	<g>
		<g>
			
				<ellipse transform="matrix(0.9913 -0.1313 0.1313 0.9913 -5.4518 46.555)" class="st1" cx="350.31" cy="64.62" rx="3.94" ry="0.82"/>
			
				<ellipse transform="matrix(0.7962 -0.605 0.605 0.7962 37.3338 220.0681)" class="st1" cx="345.37" cy="54.61" rx="3.94" ry="0.82"/>
			
				<ellipse transform="matrix(0.9383 -0.3457 0.3457 0.9383 0.9088 123.9698)" class="st1" cx="347.95" cy="59.44" rx="3.94" ry="0.82"/>
			
				<ellipse transform="matrix(0.9913 -0.1313 0.1313 0.9913 -4.7284 47.7319)" class="st1" cx="359.6" cy="59.72" rx="3.94" ry="0.82"/>
			
				<ellipse transform="matrix(0.7962 -0.605 0.605 0.7962 42.1889 224.6887)" class="st1" cx="354.65" cy="49.71" rx="3.94" ry="0.82"/>
			
				<ellipse transform="matrix(0.9383 -0.3457 0.3457 0.9383 3.1747 126.8787)" class="st1" cx="357.24" cy="54.54" rx="3.94" ry="0.82"/>
		</g>
		<g>
			
				<ellipse transform="matrix(0.9913 -0.1313 0.1313 0.9913 -4.3546 48.741)" class="st1" cx="367.44" cy="57.39" rx="3.94" ry="0.82"/>
			
				<ellipse transform="matrix(0.7962 -0.605 0.605 0.7962 45.1958 228.9561)" class="st1" cx="362.49" cy="47.38" rx="3.94" ry="0.82"/>
			
				<ellipse transform="matrix(0.9383 -0.3457 0.3457 0.9383 4.4638 129.4452)" class="st1" cx="365.08" cy="52.21" rx="3.94" ry="0.82"/>
			
				<ellipse transform="matrix(0.9913 -0.1313 0.1313 0.9913 -3.6312 49.9179)" class="st1" cx="376.73" cy="52.5" rx="3.94" ry="0.82"/>
			
				<ellipse transform="matrix(0.7962 -0.605 0.605 0.7962 50.0508 233.5768)" class="st1" cx="371.78" cy="42.49" rx="3.94" ry="0.82"/>
			
				<ellipse transform="matrix(0.9383 -0.3457 0.3457 0.9383 6.7298 132.3542)" class="st1" cx="374.36" cy="47.31" rx="3.94" ry="0.82"/>
		</g>
		<g>
			
				<ellipse transform="matrix(0.0162 -0.9999 0.9999 0.0162 329.9199 434.0157)" class="st1" cx="385.51" cy="49.36" rx="0.82" ry="3.94"/>
			
				<ellipse transform="matrix(0.8767 -0.4811 0.4811 0.8767 28.4892 188.5928)" class="st1" cx="382.09" cy="38.73" rx="3.94" ry="0.82"/>
			
				<ellipse transform="matrix(0.979 -0.2038 0.2038 0.979 -0.8877 79.1469)" class="st1" cx="383.93" cy="43.88" rx="3.94" ry="0.82"/>
			
				<ellipse transform="matrix(0.0162 -0.9999 0.9999 0.0162 343.142 440.5021)" class="st1" cx="395.41" cy="45.88" rx="0.82" ry="3.94"/>
			
				<ellipse transform="matrix(0.8767 -0.4811 0.4811 0.8767 31.3832 192.9304)" class="st1" cx="391.99" cy="35.25" rx="3.94" ry="0.82"/>
			
				<ellipse transform="matrix(0.979 -0.2038 0.2038 0.979 0.0283 81.0926)" class="st1" cx="393.84" cy="40.41" rx="3.94" ry="0.82"/>
		</g>
		<g>
			
				<ellipse transform="matrix(0.1527 -0.9883 0.9883 0.1527 319.8369 453.2689)" class="st1" cx="424.26" cy="40.11" rx="0.82" ry="3.94"/>
			
				<ellipse transform="matrix(0.9342 -0.3567 0.3567 0.9342 17.4009 152.5741)" class="st1" cx="422.32" cy="29.11" rx="3.94" ry="0.82"/>
			
				<ellipse transform="matrix(0.9977 -0.068 0.068 0.9977 -1.3641 28.8804)" class="st1" cx="423.45" cy="34.47" rx="3.94" ry="0.82"/>
		</g>
		<g>
			
				<ellipse transform="matrix(0.1527 -0.9883 0.9883 0.1527 328.4911 461.152)" class="st1" cx="433.18" cy="39.01" rx="0.82" ry="3.94"/>
			
				<ellipse transform="matrix(0.9342 -0.3567 0.3567 0.9342 18.3824 155.685)" class="st1" cx="431.25" cy="28.01" rx="3.94" ry="0.82"/>
			
				<ellipse transform="matrix(0.9977 -0.068 0.068 0.9977 -1.2682 29.4848)" class="st1" cx="432.37" cy="33.37" rx="3.94" ry="0.82"/>
		</g>
		<g>
			
				<ellipse transform="matrix(0.1527 -0.9883 0.9883 0.1527 336.7804 469.418)" class="st1" cx="442.15" cy="38.3" rx="0.82" ry="3.94"/>
			
				<ellipse transform="matrix(0.9342 -0.3567 0.3567 0.9342 19.2225 158.8371)" class="st1" cx="440.21" cy="27.31" rx="3.94" ry="0.82"/>
			
				<ellipse transform="matrix(0.9977 -0.068 0.068 0.9977 -1.1998 30.093)" class="st1" cx="441.34" cy="32.67" rx="3.94" ry="0.82"/>
		</g>
		<g>
			
				<ellipse transform="matrix(0.1527 -0.9883 0.9883 0.1527 299.0404 436.0869)" class="st1" cx="403.84" cy="43.65" rx="0.82" ry="3.94"/>
			
				<ellipse transform="matrix(0.9342 -0.3567 0.3567 0.9342 14.7956 145.5228)" class="st1" cx="401.9" cy="32.65" rx="3.94" ry="0.82"/>
			
				<ellipse transform="matrix(0.9977 -0.068 0.068 0.9977 -1.652 27.4999)" class="st1" cx="403.03" cy="38.01" rx="3.94" ry="0.82"/>
		</g>
		<g>
			
				<ellipse transform="matrix(0.1527 -0.9883 0.9883 0.1527 310.0515 444.7289)" class="st1" cx="414.38" cy="41.55" rx="0.82" ry="3.94"/>
			
				<ellipse transform="matrix(0.9342 -0.3567 0.3567 0.9342 16.2388 149.1465)" class="st1" cx="412.45" cy="30.55" rx="3.94" ry="0.82"/>
			
				<ellipse transform="matrix(0.9977 -0.068 0.068 0.9977 -1.4847 28.2122)" class="st1" cx="413.57" cy="35.91" rx="3.94" ry="0.82"/>
		</g>
	</g>
	<g>
		<g>
			<ellipse class="st1" cx="493.93" cy="42.08" rx="3.94" ry="0.82"/>
			
				<ellipse transform="matrix(0.8689 -0.4949 0.4949 0.8689 48.673 246.8098)" class="st1" cx="490.34" cy="31.51" rx="3.94" ry="0.82"/>
			
				<ellipse transform="matrix(0.9757 -0.2192 0.2192 0.9757 3.946 108.8191)" class="st1" cx="492.26" cy="36.63" rx="3.94" ry="0.82"/>
			<ellipse class="st1" cx="503.78" cy="38.45" rx="3.94" ry="0.82"/>
			
				<ellipse transform="matrix(0.8689 -0.4949 0.4949 0.8689 51.7618 251.2092)" class="st1" cx="500.19" cy="27.87" rx="3.94" ry="0.82"/>
			
				<ellipse transform="matrix(0.9757 -0.2192 0.2192 0.9757 4.982 110.8905)" class="st1" cx="502.12" cy="33" rx="3.94" ry="0.82"/>
		</g>
		<g>
			<ellipse class="st1" cx="511.85" cy="37.17" rx="3.94" ry="0.82"/>
			
				<ellipse transform="matrix(0.8689 -0.4949 0.4949 0.8689 53.4531 255.0392)" class="st1" cx="508.27" cy="26.59" rx="3.94" ry="0.82"/>
			
				<ellipse transform="matrix(0.9757 -0.2192 0.2192 0.9757 5.4588 112.6303)" class="st1" cx="510.19" cy="31.72" rx="3.94" ry="0.82"/>
			<ellipse class="st1" cx="521.7" cy="33.54" rx="3.94" ry="0.82"/>
			
				<ellipse transform="matrix(0.8689 -0.4949 0.4949 0.8689 56.5419 259.4385)" class="st1" cx="518.12" cy="22.96" rx="3.94" ry="0.82"/>
			
				<ellipse transform="matrix(0.9757 -0.2192 0.2192 0.9757 6.4948 114.7017)" class="st1" cx="520.04" cy="28.09" rx="3.94" ry="0.82"/>
		</g>
		<g>
			
				<ellipse transform="matrix(0.1476 -0.989 0.989 0.1476 421.2212 551.9225)" class="st1" cx="530.82" cy="31.58" rx="0.82" ry="3.94"/>
			
				<ellipse transform="matrix(0.9324 -0.3615 0.3615 0.9324 28.3223 192.5756)" class="st1" cx="528.83" cy="20.6" rx="3.94" ry="0.82"/>
			
				<ellipse transform="matrix(0.9973 -0.0731 0.0731 0.9973 -0.4786 38.8257)" class="st1" cx="529.98" cy="25.95" rx="3.94" ry="0.82"/>
			
				<ellipse transform="matrix(0.1476 -0.989 0.989 0.1476 432.1003 560.2628)" class="st1" cx="541.1" cy="29.44" rx="0.82" ry="3.94"/>
			
				<ellipse transform="matrix(0.9324 -0.3615 0.3615 0.9324 29.7917 196.1466)" class="st1" cx="539.11" cy="18.45" rx="3.94" ry="0.82"/>
			
				<ellipse transform="matrix(0.9973 -0.0731 0.0731 0.9973 -0.2945 39.5716)" class="st1" cx="540.26" cy="23.81" rx="3.94" ry="0.82"/>
		</g>
		<g>
			
				<ellipse transform="matrix(0.2814 -0.9596 0.9596 0.2814 383.5054 567.165)" class="st1" cx="570.45" cy="27.51" rx="0.82" ry="3.94"/>
			
				<ellipse transform="matrix(0.973 -0.2307 0.2307 0.973 11.5992 131.9258)" class="st1" cx="569.98" cy="16.36" rx="3.94" ry="0.82"/>
			
				<ellipse transform="matrix(0.0639 -0.998 0.998 0.0639 512.1761 589.6497)" class="st1" cx="570.39" cy="21.82" rx="0.82" ry="3.94"/>
		</g>
		<g>
			
				<ellipse transform="matrix(0.2814 -0.9596 0.9596 0.2814 389.8914 575.8504)" class="st1" cx="579.44" cy="27.59" rx="0.82" ry="3.94"/>
			
				<ellipse transform="matrix(0.973 -0.2307 0.2307 0.973 11.8235 134.0023)" class="st1" cx="578.97" cy="16.44" rx="3.94" ry="0.82"/>
			
				<ellipse transform="matrix(0.0639 -0.998 0.998 0.0639 520.5153 598.6973)" class="st1" cx="579.38" cy="21.9" rx="0.82" ry="3.94"/>
		</g>
		<g>
			
				<ellipse transform="matrix(0.2814 -0.9596 0.9596 0.2814 395.8787 584.8154)" class="st1" cx="588.42" cy="28.08" rx="0.82" ry="3.94"/>
			
				<ellipse transform="matrix(0.973 -0.2307 0.2307 0.973 11.9539 136.0868)" class="st1" cx="587.95" cy="16.92" rx="3.94" ry="0.82"/>
			
				<ellipse transform="matrix(0.0639 -0.998 0.998 0.0639 528.4375 608.1124)" class="st1" cx="588.36" cy="22.38" rx="0.82" ry="3.94"/>
		</g>
		<g>
			
				<ellipse transform="matrix(0.2814 -0.9596 0.9596 0.2814 401.8859 593.0461)" class="st1" cx="596.92" cy="28.18" rx="0.82" ry="3.94"/>
			
				<ellipse transform="matrix(0.973 -0.2307 0.2307 0.973 12.1591 138.0503)" class="st1" cx="596.45" cy="17.03" rx="3.94" ry="0.82"/>
			
				<ellipse transform="matrix(0.0639 -0.998 0.998 0.0639 536.2897 616.692)" class="st1" cx="596.86" cy="22.49" rx="0.82" ry="3.94"/>
		</g>
		<g>
			
				<ellipse transform="matrix(0.2814 -0.9596 0.9596 0.2814 367.8404 547.884)" class="st1" cx="549.74" cy="28.33" rx="0.82" ry="3.94"/>
			
				<ellipse transform="matrix(0.973 -0.2307 0.2307 0.973 10.8517 127.1713)" class="st1" cx="549.27" cy="17.18" rx="3.94" ry="0.82"/>
			
				<ellipse transform="matrix(0.0639 -0.998 0.998 0.0639 491.975 569.7523)" class="st1" cx="549.68" cy="22.64" rx="0.82" ry="3.94"/>
		</g>
		<g>
			
				<ellipse transform="matrix(0.2814 -0.9596 0.9596 0.2814 376.2169 557.6816)" class="st1" cx="560.47" cy="27.64" rx="0.82" ry="3.94"/>
			
				<ellipse transform="matrix(0.973 -0.2307 0.2307 0.973 11.3013 129.6278)" class="st1" cx="560" cy="16.48" rx="3.94" ry="0.82"/>
			
				<ellipse transform="matrix(0.0639 -0.998 0.998 0.0639 502.7126 579.8106)" class="st1" cx="560.41" cy="21.94" rx="0.82" ry="3.94"/>
		</g>
	</g>
	<g>
		<g>
			
				<ellipse transform="matrix(0.9967 -0.0816 0.0816 0.9967 -0.9697 49.0825)" class="st1" cx="600.19" cy="36.41" rx="3.94" ry="0.82"/>
			
				<ellipse transform="matrix(0.8255 -0.5644 0.5644 0.8255 89.1981 340.8199)" class="st1" cx="595.75" cy="26.16" rx="3.94" ry="0.82"/>
			
				<ellipse transform="matrix(0.9544 -0.2984 0.2984 0.9544 17.9652 179.8935)" class="st1" cx="598.09" cy="31.11" rx="3.94" ry="0.82"/>
			
				<ellipse transform="matrix(0.9967 -0.0816 0.0816 0.9967 -0.5769 49.8444)" class="st1" cx="609.71" cy="31.98" rx="3.94" ry="0.82"/>
			
				<ellipse transform="matrix(0.8255 -0.5644 0.5644 0.8255 93.3581 345.4207)" class="st1" cx="605.27" cy="21.74" rx="3.94" ry="0.82"/>
			
				<ellipse transform="matrix(0.9544 -0.2984 0.2984 0.9544 19.72 182.5328)" class="st1" cx="607.61" cy="26.69" rx="3.94" ry="0.82"/>
		</g>
		<g>
			
				<ellipse transform="matrix(0.9967 -0.0816 0.0816 0.9967 -0.3925 50.4861)" class="st1" cx="617.66" cy="30.05" rx="3.94" ry="0.82"/>
			
				<ellipse transform="matrix(0.8255 -0.5644 0.5644 0.8255 95.8371 349.5675)" class="st1" cx="613.22" cy="19.8" rx="3.94" ry="0.82"/>
			
				<ellipse transform="matrix(0.9544 -0.2984 0.2984 0.9544 20.6596 184.8156)" class="st1" cx="615.56" cy="24.75" rx="3.94" ry="0.82"/>
			
				<ellipse transform="matrix(0.9967 -0.0816 0.0816 0.9967 3.411413e-04 51.2479)" class="st1" cx="627.18" cy="25.62" rx="3.94" ry="0.82"/>
			
				<ellipse transform="matrix(0.8255 -0.5644 0.5644 0.8255 99.9971 354.1684)" class="st1" cx="622.74" cy="15.38" rx="3.94" ry="0.82"/>
			
				<ellipse transform="matrix(0.9544 -0.2984 0.2984 0.9544 22.4143 187.4548)" class="st1" cx="625.08" cy="20.33" rx="3.94" ry="0.82"/>
		</g>
		<g>
			
				<ellipse transform="matrix(0.0661 -0.9978 0.9978 0.0661 571.1573 656.1183)" class="st1" cx="636.1" cy="22.93" rx="0.82" ry="3.94"/>
			
				<ellipse transform="matrix(0.8996 -0.4367 0.4367 0.8996 58.2573 277.7187)" class="st1" cx="633.22" cy="12.14" rx="3.94" ry="0.82"/>
			
				<ellipse transform="matrix(0.988 -0.1546 0.1546 0.988 4.9414 98.3201)" class="st1" cx="634.8" cy="17.38" rx="3.94" ry="0.82"/>
			
				<ellipse transform="matrix(0.0661 -0.9978 0.9978 0.0661 583.5295 663.3856)" class="st1" cx="646.17" cy="19.95" rx="0.82" ry="3.94"/>
			
				<ellipse transform="matrix(0.8996 -0.4367 0.4367 0.8996 60.5674 281.8165)" class="st1" cx="643.29" cy="9.16" rx="3.94" ry="0.82"/>
			
				<ellipse transform="matrix(0.988 -0.1546 0.1546 0.988 5.5223 99.8405)" class="st1" cx="644.87" cy="14.4" rx="3.94" ry="0.82"/>
		</g>
		<g>
			
				<ellipse transform="matrix(0.2019 -0.9794 0.9794 0.2019 523.6222 673.8316)" class="st1" cx="675.27" cy="15.63" rx="0.82" ry="3.94"/>
			
				<ellipse transform="matrix(0.9509 -0.3096 0.3096 0.9509 31.7001 208.8514)" class="st1" cx="673.88" cy="4.55" rx="3.94" ry="0.82"/>
			
				<ellipse transform="matrix(0.9998 -0.0181 0.0181 0.9998 -0.0698 12.1839)" class="st1" cx="674.74" cy="9.96" rx="3.94" ry="0.82"/>
		</g>
		<g>
			
				<ellipse transform="matrix(0.2019 -0.9794 0.9794 0.2019 531.4243 682.0904)" class="st1" cx="684.24" cy="14.97" rx="0.82" ry="3.94"/>
			
				<ellipse transform="matrix(0.9509 -0.3096 0.3096 0.9509 32.3444 211.5957)" class="st1" cx="682.85" cy="3.89" rx="3.94" ry="0.82"/>
			
				<ellipse transform="matrix(0.9998 -0.0181 0.0181 0.9998 -0.0564 12.3457)" class="st1" cx="683.71" cy="9.3" rx="3.94" ry="0.82"/>
		</g>
		<g>
			
				<ellipse transform="matrix(0.2019 -0.9794 0.9794 0.2019 538.8454 690.6931)" class="st1" cx="693.22" cy="14.72" rx="0.82" ry="3.94"/>
			
				<ellipse transform="matrix(0.9509 -0.3096 0.3096 0.9509 32.8642 214.3662)" class="st1" cx="691.84" cy="3.64" rx="3.94" ry="0.82"/>
			
				<ellipse transform="matrix(0.9998 -0.0181 0.0181 0.9998 -0.0504 12.508)" class="st1" cx="692.7" cy="9.05" rx="3.94" ry="0.82"/>
		</g>
		<g>
			
				<ellipse transform="matrix(0.2019 -0.9794 0.9794 0.2019 546.1926 698.5253)" class="st1" cx="701.7" cy="14.12" rx="0.82" ry="3.94"/>
			
				<ellipse transform="matrix(0.9509 -0.3096 0.3096 0.9509 33.464 216.9622)" class="st1" cx="700.32" cy="3.04" rx="3.94" ry="0.82"/>
			
				<ellipse transform="matrix(0.9998 -0.0181 0.0181 0.9998 -0.0383 12.661)" class="st1" cx="701.18" cy="8.45" rx="3.94" ry="0.82"/>
		</g>
		<g>
			
				<ellipse transform="matrix(0.2019 -0.9794 0.9794 0.2019 552.5955 707.2858)" class="st1" cx="710.28" cy="14.58" rx="0.82" ry="3.94"/>
			
				<ellipse transform="matrix(0.9509 -0.3096 0.3096 0.9509 33.7456 219.6397)" class="st1" cx="708.9" cy="3.5" rx="3.94" ry="0.82"/>
			
				<ellipse transform="matrix(0.9998 -0.0181 0.0181 0.9998 -0.0451 12.8159)" class="st1" cx="709.75" cy="8.91" rx="3.94" ry="0.82"/>
		</g>
		<g>
			
				<ellipse transform="matrix(0.2019 -0.9794 0.9794 0.2019 559.2502 716.2801)" class="st1" cx="719.13" cy="14.99" rx="0.82" ry="3.94"/>
			
				<ellipse transform="matrix(0.9509 -0.3096 0.3096 0.9509 34.0521 222.3987)" class="st1" cx="717.74" cy="3.91" rx="3.94" ry="0.82"/>
			
				<ellipse transform="matrix(0.9998 -0.0181 0.0181 0.9998 -0.0511 12.9757)" class="st1" cx="718.6" cy="9.32" rx="3.94" ry="0.82"/>
		</g>
		<g>
			
				<ellipse transform="matrix(0.2019 -0.9794 0.9794 0.2019 566.1028 724.0512)" class="st1" cx="727.32" cy="14.67" rx="0.82" ry="3.94"/>
			
				<ellipse transform="matrix(0.9509 -0.3096 0.3096 0.9509 34.5535 224.92)" class="st1" cx="725.94" cy="3.59" rx="3.94" ry="0.82"/>
			<ellipse transform="matrix(0.9998 -0.0181 0.0181 0.9998 -0.044 13.1236)" class="st1" cx="726.79" cy="9" rx="3.94" ry="0.82"/>
		</g>
		<g>
			
				<ellipse transform="matrix(0.2019 -0.9794 0.9794 0.2019 571.7324 731.6245)" class="st1" cx="734.78" cy="15" rx="0.82" ry="3.94"/>
			
				<ellipse transform="matrix(0.9509 -0.3096 0.3096 0.9509 34.8172 227.2464)" class="st1" cx="733.4" cy="3.92" rx="3.94" ry="0.82"/>
			
				<ellipse transform="matrix(0.9998 -0.0181 0.0181 0.9998 -0.0488 13.2584)" class="st1" cx="734.26" cy="9.33" rx="3.94" ry="0.82"/>
		</g>
		<g>
			
				<ellipse transform="matrix(0.2019 -0.9794 0.9794 0.2019 504.7452 655.6903)" class="st1" cx="654.7" cy="18.14" rx="0.82" ry="3.94"/>
			
				<ellipse transform="matrix(0.9509 -0.3096 0.3096 0.9509 29.9118 202.6066)" class="st1" cx="653.32" cy="7.06" rx="3.94" ry="0.82"/>
			
				<ellipse transform="matrix(0.9998 -0.0181 0.0181 0.9998 -0.1185 11.813)" class="st1" cx="654.17" cy="12.47" rx="3.94" ry="0.82"/>
		</g>
		<g>
			
				<ellipse transform="matrix(0.2019 -0.9794 0.9794 0.2019 514.7731 664.8549)" class="st1" cx="665.33" cy="16.57" rx="0.82" ry="3.94"/>
			
				<ellipse transform="matrix(0.9509 -0.3096 0.3096 0.9509 30.9207 205.8226)" class="st1" cx="663.95" cy="5.49" rx="3.94" ry="0.82"/>
			
				<ellipse transform="matrix(0.9998 -0.0181 0.0181 0.9998 -0.0884 12.0048)" class="st1" cx="664.81" cy="10.9" rx="3.94" ry="0.82"/>
		</g>
	</g>
	<path class="st0" d="M465.43,109.23c0,0,34.77-80.96,4.96,1.19L465.43,109.23z"/>
	<path class="st0" d="M467.99,108.64c0,0,78.48,40.05-1.51,4.87L467.99,108.64z"/>
	<path class="st0" d="M472.85,106.9c0,0,79.61-37.75,2.94,4.17L472.85,106.9z"/>
	<g>
		<path class="st0" d="M319.29,191.65c0,0,19.23-44.78,2.75,0.66L319.29,191.65z"/>
		<path class="st0" d="M320.7,191.32c0,0,43.41,22.15-0.84,2.7L320.7,191.32z"/>
		<path class="st0" d="M323.39,190.36c0,0,44.03-20.88,1.63,2.31L323.39,190.36z"/>
	</g>
	<g>
		<path class="st0" d="M215.42,277.88c0,0,8.69-20.22,1.24,0.3L215.42,277.88z"/>
		<path class="st0" d="M216.06,277.74c0,0,19.6,10-0.38,1.22L216.06,277.74z"/>
		<path class="st0" d="M217.27,277.3c0,0,19.89-9.43,0.73,1.04L217.27,277.3z"/>
	</g>
	<g>
		<path class="st0" d="M175.66,296.06c0,0,8.69-20.22,1.24,0.3L175.66,296.06z"/>
		<path class="st0" d="M176.3,295.92c0,0,19.6,10-0.38,1.22L176.3,295.92z"/>
		<path class="st0" d="M177.51,295.48c0,0,19.89-9.43,0.73,1.04L177.51,295.48z"/>
	</g>
	<g>
		<path class="st0" d="M134.35,318.85c0,0,8.69-20.22,1.24,0.3L134.35,318.85z"/>
		<path class="st0" d="M134.99,318.71c0,0,19.6,10-0.38,1.22L134.99,318.71z"/>
		<path class="st0" d="M136.2,318.27c0,0,19.89-9.43,0.73,1.04L136.2,318.27z"/>
	</g>
	<g>
		<path class="st0" d="M89.7,349.25c0,0,8.69-20.22,1.24,0.3L89.7,349.25z"/>
		<path class="st0" d="M90.34,349.1c0,0,19.6,10-0.38,1.22L90.34,349.1z"/>
		<path class="st0" d="M91.56,348.67c0,0,19.89-9.43,0.73,1.04L91.56,348.67z"/>
	</g>
	<g>
		<path class="st0" d="M64.24,371.48c0,0,8.69-20.22,1.24,0.3L64.24,371.48z"/>
		<path class="st0" d="M64.88,371.33c0,0,19.6,10-0.38,1.22L64.88,371.33z"/>
		<path class="st0" d="M66.09,370.89c0,0,19.89-9.43,0.73,1.04L66.09,370.89z"/>
	</g>
	<g>
		<path class="st0" d="M282.07,208.37c0,0,19.23-44.78,2.75,0.66L282.07,208.37z"/>
		<path class="st0" d="M283.49,208.05c0,0,43.41,22.15-0.84,2.7L283.49,208.05z"/>
		<path class="st0" d="M286.18,207.08c0,0,44.03-20.88,1.63,2.31L286.18,207.08z"/>
	</g>
	<g>
		<path class="st0" d="M236.22,230.15c0,0,19.23-44.78,2.75,0.66L236.22,230.15z"/>
		<path class="st0" d="M237.64,229.82c0,0,43.41,22.15-0.84,2.7L237.64,229.82z"/>
		<path class="st0" d="M240.33,228.86c0,0,44.03-20.88,1.63,2.31L240.33,228.86z"/>
	</g>
	<g>
		<path class="st0" d="M179.8,262.73c0,0,19.23-44.78,2.75,0.66L179.8,262.73z"/>
		<path class="st0" d="M181.21,262.41c0,0,43.41,22.15-0.84,2.7L181.21,262.41z"/>
		<path class="st0" d="M183.9,261.45c0,0,44.03-20.88,1.63,2.31L183.9,261.45z"/>
	</g>
	<g>
		<path class="st0" d="M147.57,283.71c0,0,19.23-44.78,2.75,0.66L147.57,283.71z"/>
		<path class="st0" d="M148.99,283.38c0,0,43.41,22.15-0.84,2.7L148.99,283.38z"/>
		<path class="st0" d="M151.67,282.42c0,0,44.03-20.88,1.63,2.31L151.67,282.42z"/>
	</g>
	<g>
		<path class="st0" d="M102.67,320.18c0,0,19.23-44.78,2.75,0.66L102.67,320.18z"/>
		<path class="st0" d="M104.09,319.85c0,0,43.41,22.15-0.84,2.7L104.09,319.85z"/>
		<path class="st0" d="M106.78,318.89c0,0,44.03-20.88,1.63,2.31L106.78,318.89z"/>
	</g>
	<g>
		<path class="st0" d="M61.01,356.2c0,0,19.23-44.78,2.75,0.66L61.01,356.2z"/>
		<path class="st0" d="M62.43,355.88c0,0,43.41,22.15-0.84,2.7L62.43,355.88z"/>
		<path class="st0" d="M65.11,354.91c0,0,44.03-20.88,1.63,2.31L65.11,354.91z"/>
	</g>
	<g>
		<path class="st0" d="M51.33,340.76c0,0,9.72-87.57,5.09-0.31L51.33,340.76z"/>
		<path class="st0" d="M53.61,339.45c0,0,86.73,15.49-0.03,5.1L53.61,339.45z"/>
		<path class="st0" d="M57.75,336.37c0,0,65.19-59.27,4.03,3.14L57.75,336.37z"/>
	</g>
	<g>
		<path class="st0" d="M97.03,295.47c0,0,34.77-80.96,4.96,1.19L97.03,295.47z"/>
		<path class="st0" d="M99.59,294.88c0,0,78.48,40.05-1.51,4.87L99.59,294.88z"/>
		<path class="st0" d="M104.45,293.14c0,0,79.61-37.75,2.94,4.17L104.45,293.14z"/>
	</g>
	<g>
		<path class="st0" d="M176.17,232.8c0,0,34.77-80.96,4.96,1.19L176.17,232.8z"/>
		<path class="st0" d="M178.73,232.21c0,0,78.48,40.05-1.51,4.87L178.73,232.21z"/>
		<path class="st0" d="M183.59,230.46c0,0,79.61-37.75,2.94,4.17L183.59,230.46z"/>
	</g>
	<g>
		<path class="st0" d="M263.35,184.38c0,0,34.77-80.96,4.96,1.19L263.35,184.38z"/>
		<path class="st0" d="M265.9,183.79c0,0,78.48,40.05-1.51,4.87L265.9,183.79z"/>
		<path class="st0" d="M270.77,182.05c0,0,79.61-37.75,2.94,4.17L270.77,182.05z"/>
	</g>
	<g>
		<path class="st0" d="M362.66,140.32c0,0,34.77-80.96,4.96,1.19L362.66,140.32z"/>
		<path class="st0" d="M365.22,139.73c0,0,78.48,40.05-1.51,4.87L365.22,139.73z"/>
		<path class="st0" d="M370.08,137.99c0,0,79.61-37.75,2.94,4.17L370.08,137.99z"/>
	</g>
	<g>
		<path class="st0" d="M242.58,159.54c0,0,34.77-80.96,4.96,1.19L242.58,159.54z"/>
		<path class="st0" d="M245.14,158.95c0,0,78.48,40.05-1.51,4.87L245.14,158.95z"/>
		<path class="st0" d="M250,157.21c0,0,79.61-37.75,2.94,4.17L250,157.21z"/>
	</g>
	<g>
		<path class="st0" d="M128.76,231.8c0,0,11.36-87.37,5.1-0.21L128.76,231.8z"/>
		<path class="st0" d="M131.06,230.53c0,0,86.43,17.12-0.13,5.1L131.06,230.53z"/>
		<path class="st0" d="M135.26,227.53c0,0,66.29-58.04,3.97,3.21L135.26,227.53z"/>
	</g>
	<g>
		<path class="st0" d="M181.38,179.94c0,0,21.4-85.47,5.09,0.38L181.38,179.94z"/>
		<path class="st0" d="M183.81,178.95c0,0,83.86,27.01-0.72,5.05L183.81,178.95z"/>
		<path class="st0" d="M188.33,176.46c0,0,72.56-49.97,3.57,3.65L188.33,176.46z"/>
	</g>
	<g>
		<path class="st0" d="M102.33,279.92c0,0-0.76-88.1,5.02-0.91L102.33,279.92z"/>
		<path class="st0" d="M104.43,278.35c0,0,87.96,5.07,0.58,5.07L104.43,278.35z"/>
		<path class="st0" d="M108.18,274.8c0,0,57.68-66.6,4.37,2.64L108.18,274.8z"/>
	</g>
	<g>
		<path class="st0" d="M44.11,335.22c0,0-9.08-87.64,4.91-1.38L44.11,335.22z"/>
		<path class="st0" d="M46.06,333.46c0,0,88.05-3.26,1.05,4.99L46.06,333.46z"/>
		<path class="st0" d="M49.45,329.57c0,0,51.13-71.75,4.6,2.21L49.45,329.57z"/>
	</g>
	<g>
		<path class="st0" d="M21.75,340.09c0,0-16.7-86.51,4.77-1.81L21.75,340.09z"/>
		<path class="st0" d="M23.54,338.17c0,0,87.42-10.94,1.49,4.88L23.54,338.17z"/>
		<path class="st0" d="M26.58,334c0,0,44.66-75.95,4.78,1.8L26.58,334z"/>
	</g>
	<g>
		<path class="st0" d="M29.55,278c0,0-18.72-86.09,4.73-1.92L29.55,278z"/>
		<path class="st0" d="M31.29,276.03c0,0,87.14-12.98,1.6,4.85L31.29,276.03z"/>
		<path class="st0" d="M34.23,271.79c0,0,42.88-76.97,4.82,1.69L34.23,271.79z"/>
	</g>
	<g>
		<path class="st0" d="M67.8,298.21c0,0-18.72-86.09,4.73-1.92L67.8,298.21z"/>
		<path class="st0" d="M69.53,296.24c0,0,87.14-12.98,1.6,4.85L69.53,296.24z"/>
		<path class="st0" d="M72.48,292c0,0,42.88-76.97,4.82,1.69L72.48,292z"/>
	</g>
	<g>
		<path class="st0" d="M73.85,227.19c0,0-7.91-87.75,4.93-1.32L73.85,227.19z"/>
		<path class="st0" d="M75.82,225.45c0,0,88.08-2.09,0.99,5.01L75.82,225.45z"/>
		<path class="st0" d="M79.27,221.61c0,0,52.08-71.07,4.57,2.27L79.27,221.61z"/>
	</g>
	<g>
		<path class="st0" d="M126.13,195.57c0,0-2.72-88.06,5-1.02L126.13,195.57z"/>
		<path class="st0" d="M128.2,193.95c0,0,88.05,3.11,0.69,5.06L128.2,193.95z"/>
		<path class="st0" d="M131.87,190.32c0,0,56.18-67.87,4.43,2.54L131.87,190.32z"/>
	</g>
	<g>
		<path class="st0" d="M100.17,263.46c0,0-2.72-88.06,5-1.02L100.17,263.46z"/>
		<path class="st0" d="M102.24,261.84c0,0,88.05,3.11,0.69,5.06L102.24,261.84z"/>
		<path class="st0" d="M105.91,258.21c0,0,56.18-67.87,4.43,2.54L105.91,258.21z"/>
	</g>
	<g>
		<path class="st0" d="M48.79,273.1c0,0-2.72-88.06,5-1.02L48.79,273.1z"/>
		<path class="st0" d="M50.86,271.48c0,0,88.05,3.11,0.69,5.06L50.86,271.48z"/>
		<path class="st0" d="M54.53,267.85c0,0,56.18-67.87,4.43,2.54L54.53,267.85z"/>
	</g>
	<g>
		<path class="st0" d="M8.37,353.37c0,0-18.02-86.24,4.75-1.88L8.37,353.37z"/>
		<path class="st0" d="M10.12,351.42c0,0,87.25-12.28,1.56,4.86L10.12,351.42z"/>
		<path class="st0" d="M13.1,347.2c0,0,43.5-76.62,4.8,1.73L13.1,347.2z"/>
	</g>
</g>
<circle class="st2" cx="108.82" cy="128.97" r="21.76"/>
</svg>
