<?xml version="1.0" encoding="utf-8"?>
<!-- Generator: Adobe Illustrator 26.2.1, SVG Export Plug-In . SVG Version: 6.00 Build 0)  -->
<svg version="1.1" id="Layer_2" xmlns="http://www.w3.org/2000/svg" xmlns:xlink="http://www.w3.org/1999/xlink" x="0px" y="0px"
	 viewBox="0 0 785.83 432.35" style="enable-background:new 0 0 785.83 432.35;" xml:space="preserve">
<style type="text/css">
	.st0{fill:none;stroke:#49704D;stroke-width:3.1961;stroke-miterlimit:10;}
	.st1{fill:none;stroke:#4C0E7C;stroke-width:3.1961;stroke-miterlimit:10;}
	.st2{fill:#EFB614;stroke:#EFB614;stroke-width:3.1961;stroke-miterlimit:10;}
	.st3{fill:#FFFFFF;stroke:#FFFFFF;stroke-width:3.1961;stroke-miterlimit:10;}
	.st4{fill:#E89746;stroke:#EFB614;stroke-width:9.5882;stroke-miterlimit:10;}
	.st5{fill:#F7F3F0;stroke:#F7F9F7;stroke-width:3.1961;stroke-miterlimit:10;}
	.st6{fill:#E89746;stroke:#EFB614;stroke-width:6.3921;stroke-miterlimit:10;}
	.st7{fill:#F4F0ED;stroke:#EFB614;stroke-width:3.1961;stroke-miterlimit:10;}
</style>
<g>
	<g>
		<path class="st0" d="M15.54,415.63c0,0-10.71-133.31,112.47-247.45"/>
		<path class="st0" d="M24.06,413.88c0,0-1.67-159.6,183.96-288.79"/>
		<path class="st0" d="M20.84,408.99c0,0,9.4-165.2,302.86-320.97"/>
		<path class="st0" d="M28.76,415.13c0,0,98.34-256.77,436.66-361.77"/>
		<path class="st0" d="M37.1,417.87c0,0,114.05-272.21,533.67-376.13"/>
		<path class="st0" d="M29.23,422.81c0,0,121.01-205.89,421.86-293.2"/>
		<path class="st0" d="M42.46,422.32c0,0,130.06-145.55,272.3-204.74"/>
		<path class="st0" d="M51.67,429.31c0,0,68.75-76.31,162.42-117.76"/>
		<g>
			<g>
				
					<ellipse transform="matrix(0.8917 -0.4527 0.4527 0.8917 -60.8416 79.9241)" class="st1" cx="136.56" cy="167.07" rx="3.94" ry="0.82"/>
				
					<ellipse transform="matrix(0.5505 -0.8349 0.8349 0.5505 -75.1728 178.9357)" class="st1" cx="128.57" cy="159.27" rx="3.94" ry="0.82"/>
				
					<ellipse transform="matrix(0.7705 -0.6374 0.6374 0.7705 -73.4484 121.9318)" class="st1" cx="132.61" cy="162.97" rx="3.94" ry="0.82"/>
				
					<ellipse transform="matrix(0.8917 -0.4527 0.4527 0.8917 -56.5821 82.3206)" class="st1" cx="143.69" cy="159.37" rx="3.94" ry="0.82"/>
				
					<ellipse transform="matrix(0.5505 -0.8349 0.8349 0.5505 -65.5356 181.432)" class="st1" cx="135.71" cy="151.57" rx="3.94" ry="0.82"/>
				
					<ellipse transform="matrix(0.7705 -0.6374 0.6374 0.7705 -66.9018 124.7136)" class="st1" cx="139.75" cy="155.27" rx="3.94" ry="0.82"/>
			</g>
			<g>
				
					<ellipse transform="matrix(0.8917 -0.4527 0.4527 0.8917 -53.6922 84.7985)" class="st1" cx="150.32" cy="154.57" rx="3.94" ry="0.82"/>
				
					<ellipse transform="matrix(0.5505 -0.8349 0.8349 0.5505 -58.5528 184.8031)" class="st1" cx="142.33" cy="146.77" rx="3.94" ry="0.82"/>
				
					<ellipse transform="matrix(0.7705 -0.6374 0.6374 0.7705 -62.3233 127.8333)" class="st1" cx="146.37" cy="150.47" rx="3.94" ry="0.82"/>
				
					<ellipse transform="matrix(0.8917 -0.4527 0.4527 0.8917 -49.4328 87.1951)" class="st1" cx="157.45" cy="146.87" rx="3.94" ry="0.82"/>
				
					<ellipse transform="matrix(0.5505 -0.8349 0.8349 0.5505 -48.9156 187.2995)" class="st1" cx="149.46" cy="139.07" rx="3.94" ry="0.82"/>
				
					<ellipse transform="matrix(0.7705 -0.6374 0.6374 0.7705 -55.7767 130.6152)" class="st1" cx="153.5" cy="142.77" rx="3.94" ry="0.82"/>
			</g>
			<g>
				
					<ellipse transform="matrix(0.9903 -0.1388 0.1388 0.9903 -18.5257 23.7187)" class="st1" cx="160.86" cy="144.73" rx="3.94" ry="0.82"/>
				
					<ellipse transform="matrix(0.7917 -0.611 0.611 0.7917 -49.8671 123.2814)" class="st1" cx="155.83" cy="134.76" rx="3.94" ry="0.82"/>
				
					<ellipse transform="matrix(0.9357 -0.3528 0.3528 0.9357 -39.0504 64.8763)" class="st1" cx="158.45" cy="139.57" rx="3.94" ry="0.82"/>
				
					<ellipse transform="matrix(0.9903 -0.1388 0.1388 0.9903 -17.7471 24.9541)" class="st1" cx="170.11" cy="139.77" rx="3.94" ry="0.82"/>
				
					<ellipse transform="matrix(0.7917 -0.611 0.611 0.7917 -44.9054 127.8979)" class="st1" cx="165.08" cy="129.79" rx="3.94" ry="0.82"/>
				
					<ellipse transform="matrix(0.9357 -0.3528 0.3528 0.9357 -36.7033 67.8202)" class="st1" cx="167.7" cy="134.6" rx="3.94" ry="0.82"/>
			</g>
			
				<ellipse transform="matrix(0.983 -0.1838 0.1838 0.983 -22.1178 34.8943)" class="st1" cx="177.18" cy="136.76" rx="3.94" ry="0.82"/>
			
				<ellipse transform="matrix(0.763 -0.6464 0.6464 0.763 -41.4167 141.1091)" class="st1" cx="171.71" cy="127.03" rx="3.94" ry="0.82"/>
			
				<ellipse transform="matrix(0.9186 -0.3951 0.3951 0.9186 -37.8398 79.6849)" class="st1" cx="174.55" cy="131.71" rx="3.94" ry="0.82"/>
			<g>
				
					<ellipse transform="matrix(0.983 -0.1838 0.1838 0.983 -20.9747 36.4593)" class="st1" cx="186.19" cy="131.38" rx="3.94" ry="0.82"/>
				
					<ellipse transform="matrix(0.763 -0.6464 0.6464 0.763 -35.7998 145.6597)" class="st1" cx="180.72" cy="121.65" rx="3.94" ry="0.82"/>
				
					<ellipse transform="matrix(0.9186 -0.3951 0.3951 0.9186 -34.9791 82.8084)" class="st1" cx="183.56" cy="126.33" rx="3.94" ry="0.82"/>
			</g>
			<g>
				
					<ellipse transform="matrix(0.983 -0.1838 0.1838 0.983 -20.2074 37.5389)" class="st1" cx="192.4" cy="127.78" rx="3.94" ry="0.82"/>
				
					<ellipse transform="matrix(0.763 -0.6464 0.6464 0.763 -32.0017 148.8197)" class="st1" cx="186.93" cy="118.05" rx="3.94" ry="0.82"/>
				
					<ellipse transform="matrix(0.9186 -0.3951 0.3951 0.9186 -33.0518 84.9684)" class="st1" cx="189.77" cy="122.73" rx="3.94" ry="0.82"/>
			</g>
		</g>
		<g>
			
				<ellipse transform="matrix(0.9634 -0.2681 0.2681 0.9634 -25.6606 63.0523)" class="st1" cx="218.02" cy="125.47" rx="3.94" ry="0.82"/>
			
				<ellipse transform="matrix(0.7042 -0.71 0.71 0.7042 -19.9103 184.7146)" class="st1" cx="211.72" cy="116.25" rx="3.94" ry="0.82"/>
			
				<ellipse transform="matrix(0.881 -0.4731 0.4731 0.881 -31.5121 116.0559)" class="st1" cx="214.95" cy="120.67" rx="3.94" ry="0.82"/>
			
				<ellipse transform="matrix(0.9634 -0.2681 0.2681 0.9634 -23.7015 65.1103)" class="st1" cx="226.53" cy="119.33" rx="3.94" ry="0.82"/>
			
				<ellipse transform="matrix(0.7042 -0.71 0.71 0.7042 -13.0298 188.9425)" class="st1" cx="220.24" cy="110.11" rx="3.94" ry="0.82"/>
			
				<ellipse transform="matrix(0.881 -0.4731 0.4731 0.881 -27.5925 119.353)" class="st1" cx="223.47" cy="114.53" rx="3.94" ry="0.82"/>
		</g>
		<g>
			
				<ellipse transform="matrix(0.9634 -0.2681 0.2681 0.9634 -22.5176 66.9801)" class="st1" cx="233.97" cy="115.93" rx="3.94" ry="0.82"/>
			
				<ellipse transform="matrix(0.7042 -0.71 0.71 0.7042 -8.4159 193.2176)" class="st1" cx="227.67" cy="106.71" rx="3.94" ry="0.82"/>
			
				<ellipse transform="matrix(0.881 -0.4731 0.4731 0.881 -25.0991 122.4672)" class="st1" cx="230.91" cy="111.13" rx="3.94" ry="0.82"/>
			
				<ellipse transform="matrix(0.9634 -0.2681 0.2681 0.9634 -20.5586 69.0381)" class="st1" cx="242.48" cy="109.79" rx="3.94" ry="0.82"/>
			
				<ellipse transform="matrix(0.7042 -0.71 0.71 0.7042 -1.5354 197.4455)" class="st1" cx="236.19" cy="100.57" rx="3.94" ry="0.82"/>
			
				<ellipse transform="matrix(0.881 -0.4731 0.4731 0.881 -21.1794 125.7643)" class="st1" cx="239.42" cy="104.99" rx="3.94" ry="0.82"/>
		</g>
		<g>
			
				<ellipse transform="matrix(0.9924 -0.1233 0.1233 0.9924 -11.0892 31.7186)" class="st1" cx="250.74" cy="105.46" rx="3.94" ry="0.82"/>
			
				<ellipse transform="matrix(0.8011 -0.5985 0.5985 0.8011 -8.2015 166.1394)" class="st1" cx="245.87" cy="95.41" rx="3.94" ry="0.82"/>
			
				<ellipse transform="matrix(0.9411 -0.3382 0.3382 0.9411 -19.2685 89.9121)" class="st1" cx="248.42" cy="100.26" rx="3.94" ry="0.82"/>
			
				<ellipse transform="matrix(0.9924 -0.1233 0.1233 0.9924 -10.4235 32.8316)" class="st1" cx="260.06" cy="100.64" rx="3.94" ry="0.82"/>
			
				<ellipse transform="matrix(0.8011 -0.5985 0.5985 0.8011 -3.4603 170.7624)" class="st1" cx="255.2" cy="90.59" rx="3.94" ry="0.82"/>
			
				<ellipse transform="matrix(0.9411 -0.3382 0.3382 0.9411 -17.0884 92.7818)" class="st1" cx="257.74" cy="95.44" rx="3.94" ry="0.82"/>
		</g>
		<g>
			
				<ellipse transform="matrix(0.0135 -0.9999 0.9999 0.0135 193.0402 377.4698)" class="st1" cx="287.82" cy="90.9" rx="0.82" ry="3.94"/>
			
				<ellipse transform="matrix(0.8754 -0.4834 0.4834 0.8754 -3.3738 147.4751)" class="st1" cx="284.38" cy="80.28" rx="3.94" ry="0.82"/>
			
				<ellipse transform="matrix(0.9785 -0.2064 0.2064 0.9785 -11.4687 60.904)" class="st1" cx="286.23" cy="85.43" rx="3.94" ry="0.82"/>
		</g>
		<g>
			
				<ellipse transform="matrix(0.0135 -0.9999 0.9999 0.0135 203.944 383.8459)" class="st1" cx="296.51" cy="88.56" rx="0.82" ry="3.94"/>
			
				<ellipse transform="matrix(0.8754 -0.4834 0.4834 0.8754 -1.1615 151.3814)" class="st1" cx="293.06" cy="77.94" rx="3.94" ry="0.82"/>
			
				<ellipse transform="matrix(0.9785 -0.2064 0.2064 0.9785 -10.7994 62.6455)" class="st1" cx="294.92" cy="83.09" rx="3.94" ry="0.82"/>
		</g>
		<g>
			
				<ellipse transform="matrix(0.0135 -0.9999 0.9999 0.0135 167.2333 364.0067)" class="st1" cx="268.1" cy="97.25" rx="0.82" ry="3.94"/>
			
				<ellipse transform="matrix(0.8754 -0.4834 0.4834 0.8754 -8.9004 138.7299)" class="st1" cx="264.65" cy="86.63" rx="3.94" ry="0.82"/>
			
				<ellipse transform="matrix(0.9785 -0.2064 0.2064 0.9785 -13.2031 56.97)" class="st1" cx="266.51" cy="91.78" rx="3.94" ry="0.82"/>
		</g>
		<g>
			
				<ellipse transform="matrix(0.0135 -0.9999 0.9999 0.0135 180.795 370.6545)" class="st1" cx="278.25" cy="93.7" rx="0.82" ry="3.94"/>
			
				<ellipse transform="matrix(0.8754 -0.4834 0.4834 0.8754 -5.9198 143.1943)" class="st1" cx="274.8" cy="83.08" rx="3.94" ry="0.82"/>
			
				<ellipse transform="matrix(0.9785 -0.2064 0.2064 0.9785 -12.2522 58.9881)" class="st1" cx="276.66" cy="88.23" rx="3.94" ry="0.82"/>
		</g>
		<g>
			<g>
				
					<ellipse transform="matrix(0.9809 -0.1943 0.1943 0.9809 -10.7938 66.5097)" class="st1" cx="333.61" cy="88.27" rx="3.94" ry="0.82"/>
				
					<ellipse transform="matrix(0.756 -0.6546 0.6546 0.756 28.5936 233.9029)" class="st1" cx="328.03" cy="78.6" rx="3.94" ry="0.82"/>
				
					<ellipse transform="matrix(0.9143 -0.4049 0.4049 0.9143 -5.3654 141.1375)" class="st1" cx="330.92" cy="83.25" rx="3.94" ry="0.82"/>
				
					<ellipse transform="matrix(0.9809 -0.1943 0.1943 0.9809 -9.5581 68.1455)" class="st1" cx="342.56" cy="82.79" rx="3.94" ry="0.82"/>
				
					<ellipse transform="matrix(0.756 -0.6546 0.6546 0.756 34.366 238.4278)" class="st1" cx="336.99" cy="73.12" rx="3.94" ry="0.82"/>
				
					<ellipse transform="matrix(0.9143 -0.4049 0.4049 0.9143 -2.3791 144.2945)" class="st1" cx="339.88" cy="77.77" rx="3.94" ry="0.82"/>
			</g>
			<g>
				
					<ellipse transform="matrix(0.9809 -0.1943 0.1943 0.9809 -8.8627 69.5828)" class="st1" cx="350.24" cy="79.97" rx="3.94" ry="0.82"/>
				
					<ellipse transform="matrix(0.756 -0.6546 0.6546 0.756 38.0883 242.7614)" class="st1" cx="344.66" cy="70.29" rx="3.94" ry="0.82"/>
				
					<ellipse transform="matrix(0.9143 -0.4049 0.4049 0.9143 -0.5774 147.16)" class="st1" cx="347.55" cy="74.94" rx="3.94" ry="0.82"/>
				
					<ellipse transform="matrix(0.9809 -0.1943 0.1943 0.9809 -7.6271 71.2186)" class="st1" cx="359.19" cy="74.49" rx="3.94" ry="0.82"/>
				
					<ellipse transform="matrix(0.756 -0.6546 0.6546 0.756 43.8607 247.2863)" class="st1" cx="353.62" cy="64.81" rx="3.94" ry="0.82"/>
				
					<ellipse transform="matrix(0.9143 -0.4049 0.4049 0.9143 2.4089 150.3171)" class="st1" cx="356.51" cy="69.46" rx="3.94" ry="0.82"/>
			</g>
			<g>
				
					<ellipse transform="matrix(0.9989 -0.0477 0.0477 0.9989 -2.9581 17.6212)" class="st1" cx="367.75" cy="70.79" rx="3.94" ry="0.82"/>
				
					<ellipse transform="matrix(0.8442 -0.5361 0.5361 0.8442 24.2874 204.3635)" class="st1" cx="363.66" cy="60.41" rx="3.94" ry="0.82"/>
				
					<ellipse transform="matrix(0.964 -0.2658 0.2658 0.964 -4.2308 99.6074)" class="st1" cx="365.83" cy="65.43" rx="3.94" ry="0.82"/>
				
					<ellipse transform="matrix(0.9989 -0.0477 0.0477 0.9989 -2.7515 18.0775)" class="st1" cx="377.42" cy="66.69" rx="3.94" ry="0.82"/>
				
					<ellipse transform="matrix(0.8442 -0.5361 0.5361 0.8442 27.992 208.9056)" class="st1" cx="373.33" cy="56.3" rx="3.94" ry="0.82"/>
				
					<ellipse transform="matrix(0.964 -0.2658 0.2658 0.964 -2.7928 102.0292)" class="st1" cx="375.5" cy="61.33" rx="3.94" ry="0.82"/>
			</g>
			<g>
				
					<ellipse transform="matrix(0.0893 -0.996 0.996 0.0893 310.7458 458.0315)" class="st1" cx="405.84" cy="59.09" rx="0.82" ry="3.94"/>
				
					<ellipse transform="matrix(0.9095 -0.4157 0.4157 0.9095 16.4291 171.9574)" class="st1" cx="403.2" cy="48.24" rx="3.94" ry="0.82"/>
				
					<ellipse transform="matrix(0.9913 -0.1316 0.1316 0.9913 -3.5234 53.7079)" class="st1" cx="404.67" cy="53.52" rx="3.94" ry="0.82"/>
			</g>
			<g>
				
					<ellipse transform="matrix(0.0893 -0.996 0.996 0.0893 320.4587 465.3083)" class="st1" cx="414.67" cy="57.42" rx="0.82" ry="3.94"/>
				
					<ellipse transform="matrix(0.9095 -0.4157 0.4157 0.9095 17.9238 175.4786)" class="st1" cx="412.04" cy="46.57" rx="3.94" ry="0.82"/>
				
					<ellipse transform="matrix(0.9913 -0.1316 0.1316 0.9913 -3.2265 54.8559)" class="st1" cx="413.5" cy="51.84" rx="3.94" ry="0.82"/>
			</g>
			<g>
				
					<ellipse transform="matrix(0.0893 -0.996 0.996 0.0893 329.8332 473.0163)" class="st1" cx="423.57" cy="56.15" rx="0.82" ry="3.94"/>
				
					<ellipse transform="matrix(0.9095 -0.4157 0.4157 0.9095 19.2581 179.0637)" class="st1" cx="420.94" cy="45.3" rx="3.94" ry="0.82"/>
				
					<ellipse transform="matrix(0.9913 -0.1316 0.1316 0.9913 -2.9817 56.0161)" class="st1" cx="422.41" cy="50.57" rx="3.94" ry="0.82"/>
			</g>
			<g>
				
					<ellipse transform="matrix(0.0893 -0.996 0.996 0.0893 287.5797 442.3629)" class="st1" cx="385.69" cy="63.93" rx="0.82" ry="3.94"/>
				
					<ellipse transform="matrix(0.9095 -0.4157 0.4157 0.9095 12.5968 164.0189)" class="st1" cx="383.05" cy="53.07" rx="3.94" ry="0.82"/>
				
					<ellipse transform="matrix(0.9913 -0.1316 0.1316 0.9913 -4.3346 51.0986)" class="st1" cx="384.52" cy="58.35" rx="3.94" ry="0.82"/>
			</g>
			<g>
				
					<ellipse transform="matrix(0.0893 -0.996 0.996 0.0893 299.8002 450.1891)" class="st1" cx="396.08" cy="61.16" rx="0.82" ry="3.94"/>
				
					<ellipse transform="matrix(0.9095 -0.4157 0.4157 0.9095 14.6879 168.0869)" class="st1" cx="393.44" cy="50.3" rx="3.94" ry="0.82"/>
				
					<ellipse transform="matrix(0.9913 -0.1316 0.1316 0.9913 -3.8799 52.4415)" class="st1" cx="394.91" cy="55.58" rx="3.94" ry="0.82"/>
			</g>
		</g>
		<g>
			<g>
				
					<ellipse transform="matrix(0.998 -0.0635 0.0635 0.998 -2.6357 30.3211)" class="st1" cx="475.49" cy="56.61" rx="3.94" ry="0.82"/>
				
					<ellipse transform="matrix(0.8356 -0.5494 0.5494 0.8356 52.0582 266.502)" class="st1" cx="471.23" cy="46.29" rx="3.94" ry="0.82"/>
				
					<ellipse transform="matrix(0.9597 -0.2811 0.2811 0.9597 4.6767 135.1588)" class="st1" cx="473.48" cy="51.28" rx="3.94" ry="0.82"/>
				
					<ellipse transform="matrix(0.998 -0.0635 0.0635 0.998 -2.3461 30.9223)" class="st1" cx="485.09" cy="52.35" rx="3.94" ry="0.82"/>
				
					<ellipse transform="matrix(0.8356 -0.5494 0.5494 0.8356 55.9736 271.076)" class="st1" cx="480.83" cy="42.03" rx="3.94" ry="0.82"/>
				
					<ellipse transform="matrix(0.9597 -0.2811 0.2811 0.9597 6.2594 137.6854)" class="st1" cx="483.08" cy="47.02" rx="3.94" ry="0.82"/>
			</g>
			<g>
				
					<ellipse transform="matrix(0.998 -0.0635 0.0635 0.998 -2.2162 31.4256)" class="st1" cx="493.07" cy="50.56" rx="3.94" ry="0.82"/>
				
					<ellipse transform="matrix(0.8356 -0.5494 0.5494 0.8356 58.2698 275.165)" class="st1" cx="488.81" cy="40.24" rx="3.94" ry="0.82"/>
				
					<ellipse transform="matrix(0.9597 -0.2811 0.2811 0.9597 7.0846 139.856)" class="st1" cx="491.06" cy="45.23" rx="3.94" ry="0.82"/>
				
					<ellipse transform="matrix(0.998 -0.0635 0.0635 0.998 -1.9266 32.0268)" class="st1" cx="502.66" cy="46.31" rx="3.94" ry="0.82"/>
				
					<ellipse transform="matrix(0.8356 -0.5494 0.5494 0.8356 62.1852 279.739)" class="st1" cx="498.41" cy="35.99" rx="3.94" ry="0.82"/>
				
					<ellipse transform="matrix(0.9597 -0.2811 0.2811 0.9597 8.6673 142.3826)" class="st1" cx="500.66" cy="40.98" rx="3.94" ry="0.82"/>
			</g>
			<g>
				
					<ellipse transform="matrix(0.0842 -0.9965 0.9965 0.0842 424.9449 549.9119)" class="st1" cx="511.64" cy="43.78" rx="0.82" ry="3.94"/>
				
					<ellipse transform="matrix(0.9074 -0.4203 0.4203 0.9074 33.2932 216.9662)" class="st1" cx="508.95" cy="32.94" rx="3.94" ry="0.82"/>
				
					<ellipse transform="matrix(0.9906 -0.1367 0.1367 0.9906 -0.433 70.1103)" class="st1" cx="510.44" cy="38.21" rx="3.94" ry="0.82"/>
				
					<ellipse transform="matrix(0.0842 -0.9965 0.9965 0.0842 436.9972 557.4384)" class="st1" cx="521.76" cy="40.98" rx="0.82" ry="3.94"/>
				
					<ellipse transform="matrix(0.9074 -0.4203 0.4203 0.9074 35.4047 220.9613)" class="st1" cx="519.07" cy="30.15" rx="3.94" ry="0.82"/>
				
					<ellipse transform="matrix(0.9906 -0.1367 0.1367 0.9906 0.0437 71.4671)" class="st1" cx="520.56" cy="35.42" rx="3.94" ry="0.82"/>
			</g>
			<g>
				
					<ellipse transform="matrix(0.2196 -0.9756 0.9756 0.2196 393.6664 566.5015)" class="st1" cx="550.93" cy="37.19" rx="0.82" ry="3.94"/>
				
					<ellipse transform="matrix(0.9563 -0.2923 0.2923 0.9563 16.3893 161.8485)" class="st1" cx="549.75" cy="26.09" rx="3.94" ry="0.82"/>
				<ellipse class="st1" cx="550.5" cy="31.51" rx="3.94" ry="0.82"/>
			</g>
			<g>
				
					<ellipse transform="matrix(0.2196 -0.9756 0.9756 0.2196 401.157 574.8746)" class="st1" cx="559.91" cy="36.69" rx="0.82" ry="3.94"/>
				
					<ellipse transform="matrix(0.9563 -0.2923 0.2923 0.9563 16.9264 164.4517)" class="st1" cx="558.72" cy="25.59" rx="3.94" ry="0.82"/>
				<ellipse class="st1" cx="559.48" cy="31.01" rx="3.94" ry="0.82"/>
			</g>
			<g>
				
					<ellipse transform="matrix(0.2196 -0.9756 0.9756 0.2196 408.2619 583.5775)" class="st1" cx="568.9" cy="36.6" rx="0.82" ry="3.94"/>
				
					<ellipse transform="matrix(0.9563 -0.2923 0.2923 0.9563 17.3453 167.0765)" class="st1" cx="567.72" cy="25.5" rx="3.94" ry="0.82"/>
				<ellipse class="st1" cx="568.47" cy="30.92" rx="3.94" ry="0.82"/>
			</g>
			<g>
				
					<ellipse transform="matrix(0.2196 -0.9756 0.9756 0.2196 415.3143 591.5168)" class="st1" cx="577.39" cy="36.16" rx="0.82" ry="3.94"/>
				
					<ellipse transform="matrix(0.9563 -0.2923 0.2923 0.9563 17.8443 169.5389)" class="st1" cx="576.21" cy="25.06" rx="3.94" ry="0.82"/>
				<ellipse class="st1" cx="576.96" cy="30.48" rx="3.94" ry="0.82"/>
			</g>
			<g>
				
					<ellipse transform="matrix(0.2196 -0.9756 0.9756 0.2196 375.4936 548.0623)" class="st1" cx="530.32" cy="39.33" rx="0.82" ry="3.94"/>
				
					<ellipse transform="matrix(0.9563 -0.2923 0.2923 0.9563 14.8635 155.9164)" class="st1" cx="529.13" cy="28.22" rx="3.94" ry="0.82"/>
				<ellipse class="st1" cx="529.89" cy="33.65" rx="3.94" ry="0.82"/>
			</g>
			<g>
				
					<ellipse transform="matrix(0.2196 -0.9756 0.9756 0.2196 385.16 557.3906)" class="st1" cx="540.98" cy="37.95" rx="0.82" ry="3.94"/>
				
					<ellipse transform="matrix(0.9563 -0.2923 0.2923 0.9563 15.7321 158.9736)" class="st1" cx="539.8" cy="26.85" rx="3.94" ry="0.82"/>
				<ellipse class="st1" cx="540.55" cy="32.27" rx="3.94" ry="0.82"/>
			</g>
		</g>
		<g>
			<g>
				
					<ellipse transform="matrix(0.9894 -0.145 0.145 0.9894 -0.2603 84.7606)" class="st1" cx="581.18" cy="44.17" rx="3.94" ry="0.82"/>
				
					<ellipse transform="matrix(0.7878 -0.616 0.616 0.7878 101.1821 362.1179)" class="st1" cx="576.09" cy="34.23" rx="3.94" ry="0.82"/>
				
					<ellipse transform="matrix(0.9334 -0.3587 0.3587 0.9334 24.5248 210.2115)" class="st1" cx="578.74" cy="39.02" rx="3.94" ry="0.82"/>
				
					<ellipse transform="matrix(0.9894 -0.145 0.145 0.9894 0.5661 86.0445)" class="st1" cx="590.39" cy="39.14" rx="3.94" ry="0.82"/>
				
					<ellipse transform="matrix(0.7878 -0.616 0.616 0.7878 106.2341 366.7294)" class="st1" cx="585.31" cy="29.2" rx="3.94" ry="0.82"/>
				
					<ellipse transform="matrix(0.9334 -0.3587 0.3587 0.9334 26.9412 213.1839)" class="st1" cx="587.96" cy="33.99" rx="3.94" ry="0.82"/>
			</g>
			<g>
				
					<ellipse transform="matrix(0.9894 -0.145 0.145 0.9894 1.0024 87.1508)" class="st1" cx="598.2" cy="36.7" rx="3.94" ry="0.82"/>
				
					<ellipse transform="matrix(0.7878 -0.616 0.616 0.7878 109.3929 371.0198)" class="st1" cx="593.11" cy="26.76" rx="3.94" ry="0.82"/>
				
					<ellipse transform="matrix(0.9334 -0.3587 0.3587 0.9334 28.3356 215.8217)" class="st1" cx="595.76" cy="31.55" rx="3.94" ry="0.82"/>
				
					<ellipse transform="matrix(0.9894 -0.145 0.145 0.9894 1.8287 88.4346)" class="st1" cx="607.42" cy="31.68" rx="3.94" ry="0.82"/>
				
					<ellipse transform="matrix(0.7878 -0.616 0.616 0.7878 114.4449 375.6314)" class="st1" cx="602.33" cy="21.74" rx="3.94" ry="0.82"/>
				
					<ellipse transform="matrix(0.9334 -0.3587 0.3587 0.9334 30.752 218.7941)" class="st1" cx="604.98" cy="26.53" rx="3.94" ry="0.82"/>
			</g>
			<g>
				
					<ellipse transform="matrix(2.296666e-03 -1 1 2.296666e-03 586.319 644.5013)" class="st1" cx="616.15" cy="28.42" rx="0.82" ry="3.94"/>
				
					<ellipse transform="matrix(0.8699 -0.4932 0.4932 0.8699 70.8916 304.4491)" class="st1" cx="612.58" cy="17.84" rx="3.94" ry="0.82"/>
				
					<ellipse transform="matrix(0.9761 -0.2173 0.2173 0.9761 9.6948 134.089)" class="st1" cx="614.5" cy="22.97" rx="3.94" ry="0.82"/>
				
					<ellipse transform="matrix(2.296666e-03 -1 1 2.296666e-03 599.7672 650.7548)" class="st1" cx="626.01" cy="24.8" rx="0.82" ry="3.94"/>
				
					<ellipse transform="matrix(0.8699 -0.4932 0.4932 0.8699 73.9558 308.8411)" class="st1" cx="622.44" cy="14.22" rx="3.94" ry="0.82"/>
				
					<ellipse transform="matrix(0.9761 -0.2173 0.2173 0.9761 10.7155 136.1449)" class="st1" cx="624.36" cy="19.35" rx="3.94" ry="0.82"/>
			</g>
			<g>
				
					<ellipse transform="matrix(0.139 -0.9903 0.9903 0.139 545.3289 664.4611)" class="st1" cx="654.77" cy="18.63" rx="0.82" ry="3.94"/>
				
					<ellipse transform="matrix(0.9292 -0.3697 0.3697 0.9292 43.3998 241.8173)" class="st1" cx="652.68" cy="7.66" rx="3.94" ry="0.82"/>
				
					<ellipse transform="matrix(0.9966 -0.0819 0.0819 0.9966 1.1294 53.5644)" class="st1" cx="653.88" cy="13.01" rx="3.94" ry="0.82"/>
			</g>
			<g>
				
					<ellipse transform="matrix(0.139 -0.9903 0.9903 0.139 554.2164 672.2246)" class="st1" cx="663.68" cy="17.4" rx="0.82" ry="3.94"/>
				
					<ellipse transform="matrix(0.9292 -0.3697 0.3697 0.9292 44.4852 245.0233)" class="st1" cx="661.59" cy="6.43" rx="3.94" ry="0.82"/>
				
					<ellipse transform="matrix(0.9966 -0.0819 0.0819 0.9966 1.2599 54.2894)" class="st1" cx="662.79" cy="11.78" rx="3.94" ry="0.82"/>
			</g>
			<g>
				
					<ellipse transform="matrix(0.139 -0.9903 0.9903 0.139 562.7443 680.3815)" class="st1" cx="672.63" cy="16.58" rx="0.82" ry="3.94"/>
				
					<ellipse transform="matrix(0.9292 -0.3697 0.3697 0.9292 45.4247 248.2751)" class="st1" cx="670.55" cy="5.61" rx="3.94" ry="0.82"/>
				
					<ellipse transform="matrix(0.9966 -0.0819 0.0819 0.9966 1.3576 55.0196)" class="st1" cx="671.75" cy="10.95" rx="3.94" ry="0.82"/>
			</g>
			<g>
				
					<ellipse transform="matrix(0.139 -0.9903 0.9903 0.139 571.119 687.7492)" class="st1" cx="681.06" cy="15.45" rx="0.82" ry="3.94"/>
				
					<ellipse transform="matrix(0.9292 -0.3697 0.3697 0.9292 46.4399 251.309)" class="st1" cx="678.97" cy="4.48" rx="3.94" ry="0.82"/>
				
					<ellipse transform="matrix(0.9966 -0.0819 0.0819 0.9966 1.4785 55.7053)" class="st1" cx="680.17" cy="9.82" rx="3.94" ry="0.82"/>
			</g>
			<g>
				
					<ellipse transform="matrix(0.139 -0.9903 0.9903 0.139 578.6097 696.1704)" class="st1" cx="689.65" cy="15.35" rx="0.82" ry="3.94"/>
				
					<ellipse transform="matrix(0.9292 -0.3697 0.3697 0.9292 47.0841 254.4769)" class="st1" cx="687.56" cy="4.38" rx="3.94" ry="0.82"/>
				
					<ellipse transform="matrix(0.9966 -0.0819 0.0819 0.9966 1.5152 56.408)" class="st1" cx="688.76" cy="9.72" rx="3.94" ry="0.82"/>
			</g>
			<g>
				
					<ellipse transform="matrix(0.139 -0.9903 0.9903 0.139 586.384 704.8084)" class="st1" cx="698.5" cy="15.2" rx="0.82" ry="3.94"/>
				
					<ellipse transform="matrix(0.9292 -0.3697 0.3697 0.9292 47.7674 257.7393)" class="st1" cx="696.41" cy="4.23" rx="3.94" ry="0.82"/>
				
					<ellipse transform="matrix(0.9966 -0.0819 0.0819 0.9966 1.5574 57.1322)" class="st1" cx="697.61" cy="9.57" rx="3.94" ry="0.82"/>
			</g>
			<g>
				
					<ellipse transform="matrix(0.139 -0.9903 0.9903 0.139 594.2415 712.1621)" class="st1" cx="706.66" cy="14.36" rx="0.82" ry="3.94"/>
				
					<ellipse transform="matrix(0.9292 -0.3697 0.3697 0.9292 48.6564 260.6953)" class="st1" cx="704.57" cy="3.39" rx="3.94" ry="0.82"/>
				
					<ellipse transform="matrix(0.9966 -0.0819 0.0819 0.9966 1.6536 57.7971)" class="st1" cx="705.77" cy="8.73" rx="3.94" ry="0.82"/>
			</g>
			<g>
				
					<ellipse transform="matrix(0.139 -0.9903 0.9903 0.139 600.8146 719.4327)" class="st1" cx="714.13" cy="14.21" rx="0.82" ry="3.94"/>
				
					<ellipse transform="matrix(0.9292 -0.3697 0.3697 0.9292 49.2389 263.4456)" class="st1" cx="712.04" cy="3.24" rx="3.94" ry="0.82"/>
				
					<ellipse transform="matrix(0.9966 -0.0819 0.0819 0.9966 1.6905 58.4078)" class="st1" cx="713.24" cy="8.58" rx="3.94" ry="0.82"/>
			</g>
			<g>
				
					<ellipse transform="matrix(0.139 -0.9903 0.9903 0.139 524.0087 647.5806)" class="st1" cx="634.4" cy="22.45" rx="0.82" ry="3.94"/>
				
					<ellipse transform="matrix(0.9292 -0.3697 0.3697 0.9292 40.5449 234.5588)" class="st1" cx="632.32" cy="11.48" rx="3.94" ry="0.82"/>
				
					<ellipse transform="matrix(0.9966 -0.0819 0.0819 0.9966 0.7484 51.9101)" class="st1" cx="633.51" cy="16.83" rx="3.94" ry="0.82"/>
			</g>
			<g>
				
					<ellipse transform="matrix(0.139 -0.9903 0.9903 0.139 535.2875 656.0594)" class="st1" cx="644.92" cy="20.21" rx="0.82" ry="3.94"/>
				
					<ellipse transform="matrix(0.9292 -0.3697 0.3697 0.9292 42.1202 238.2868)" class="st1" cx="642.83" cy="9.24" rx="3.94" ry="0.82"/>
				
					<ellipse transform="matrix(0.9966 -0.0819 0.0819 0.9966 0.9676 52.7633)" class="st1" cx="644.03" cy="14.58" rx="3.94" ry="0.82"/>
			</g>
		</g>
		<path class="st0" d="M451.34,125.44c0,0,29.53-83.01,5.03,0.87L451.34,125.44z"/>
		<path class="st0" d="M453.86,124.69c0,0,80.88,34.95-1.2,4.96L453.86,124.69z"/>
		<path class="st0" d="M458.6,122.64c0,0,77.04-42.76,3.2,3.98L458.6,122.64z"/>
		<g>
			<path class="st0" d="M310.75,217.02c0,0,16.33-45.91,2.78,0.48L310.75,217.02z"/>
			<path class="st0" d="M312.15,216.6c0,0,44.73,19.33-0.66,2.74L312.15,216.6z"/>
			<path class="st0" d="M314.77,215.47c0,0,42.61-23.65,1.77,2.2L314.77,215.47z"/>
		</g>
		<g>
			<path class="st0" d="M212.6,309.71c0,0,7.38-20.74,1.26,0.22L212.6,309.71z"/>
			<path class="st0" d="M213.23,309.53c0,0,20.2,8.73-0.3,1.24L213.23,309.53z"/>
			<path class="st0" d="M214.42,309.01c0,0,19.24-10.68,0.8,0.99L214.42,309.01z"/>
		</g>
		<g>
			<path class="st0" d="M174.09,330.39c0,0,7.38-20.74,1.26,0.22L174.09,330.39z"/>
			<path class="st0" d="M174.72,330.21c0,0,20.2,8.73-0.3,1.24L174.72,330.21z"/>
			<path class="st0" d="M175.9,329.69c0,0,19.24-10.68,0.8,0.99L175.9,329.69z"/>
		</g>
		<g>
			<path class="st0" d="M134.31,355.78c0,0,7.38-20.74,1.26,0.22L134.31,355.78z"/>
			<path class="st0" d="M134.94,355.59c0,0,20.2,8.73-0.3,1.24L134.94,355.59z"/>
			<path class="st0" d="M136.13,355.08c0,0,19.24-10.68,0.8,0.99L136.13,355.08z"/>
		</g>
		<g>
			<path class="st0" d="M91.7,388.96c0,0,7.38-20.74,1.26,0.22L91.7,388.96z"/>
			<path class="st0" d="M92.33,388.77c0,0,20.2,8.73-0.3,1.24L92.33,388.77z"/>
			<path class="st0" d="M93.51,388.26c0,0,19.24-10.68,0.8,0.99L93.51,388.26z"/>
		</g>
		<g>
			<path class="st0" d="M67.71,412.77c0,0,7.38-20.74,1.26,0.22L67.71,412.77z"/>
			<path class="st0" d="M68.34,412.58c0,0,20.2,8.73-0.3,1.24L68.34,412.58z"/>
			<path class="st0" d="M69.52,412.07c0,0,19.24-10.68,0.8,0.99L69.52,412.07z"/>
		</g>
		<g>
			<path class="st0" d="M274.68,236.09c0,0,16.33-45.91,2.78,0.48L274.68,236.09z"/>
			<path class="st0" d="M276.07,235.67c0,0,44.73,19.33-0.66,2.74L276.07,235.67z"/>
			<path class="st0" d="M278.7,234.54c0,0,42.61-23.65,1.77,2.2L278.7,234.54z"/>
		</g>
		<g>
			<path class="st0" d="M230.32,260.74c0,0,16.33-45.91,2.78,0.48L230.32,260.74z"/>
			<path class="st0" d="M231.71,260.33c0,0,44.73,19.33-0.66,2.74L231.71,260.33z"/>
			<path class="st0" d="M234.33,259.2c0,0,42.61-23.65,1.77,2.2L234.33,259.2z"/>
		</g>
		<g>
			<path class="st0" d="M176.09,296.87c0,0,16.33-45.91,2.78,0.48L176.09,296.87z"/>
			<path class="st0" d="M177.48,296.45c0,0,44.73,19.33-0.66,2.74L177.48,296.45z"/>
			<path class="st0" d="M180.1,295.32c0,0,42.61-23.65,1.77,2.2L180.1,295.32z"/>
		</g>
		<g>
			<path class="st0" d="M145.27,319.86c0,0,16.33-45.91,2.78,0.48L145.27,319.86z"/>
			<path class="st0" d="M146.66,319.44c0,0,44.73,19.33-0.66,2.74L146.66,319.44z"/>
			<path class="st0" d="M149.28,318.31c0,0,42.61-23.65,1.77,2.2L149.28,318.31z"/>
		</g>
		<g>
			<path class="st0" d="M102.79,359.12c0,0,16.33-45.91,2.78,0.48L102.79,359.12z"/>
			<path class="st0" d="M104.18,358.71c0,0,44.73,19.33-0.66,2.74L104.18,358.71z"/>
			<path class="st0" d="M106.8,357.57c0,0,42.61-23.65,1.77,2.2L106.8,357.57z"/>
		</g>
		<g>
			<path class="st0" d="M63.51,397.73c0,0,16.33-45.91,2.78,0.48L63.51,397.73z"/>
			<path class="st0" d="M64.9,397.31c0,0,44.73,19.33-0.66,2.74L64.9,397.31z"/>
			<path class="st0" d="M67.52,396.18c0,0,42.61-23.65,1.77,2.2L67.52,396.18z"/>
		</g>
		<g>
			<path class="st0" d="M52.87,382.94c0,0,4.11-88.01,5.06-0.63L52.87,382.94z"/>
			<path class="st0" d="M55.06,381.49c0,0,87.55,9.92,0.3,5.09L55.06,381.49z"/>
			<path class="st0" d="M59,378.15c0,0,61.27-63.31,4.22,2.87L59,378.15z"/>
		</g>
		<g>
			<path class="st0" d="M95.58,334.82c0,0,29.53-83.01,5.03,0.87L95.58,334.82z"/>
			<path class="st0" d="M98.09,334.07c0,0,80.88,34.95-1.2,4.96L98.09,334.07z"/>
			<path class="st0" d="M102.83,332.02c0,0,77.04-42.76,3.2,3.98L102.83,332.02z"/>
		</g>
		<g>
			<path class="st0" d="M170.56,267.22c0,0,29.53-83.01,5.03,0.87L170.56,267.22z"/>
			<path class="st0" d="M173.07,266.47c0,0,80.88,34.95-1.2,4.96L173.07,266.47z"/>
			<path class="st0" d="M177.81,264.42c0,0,77.04-42.76,3.2,3.98L177.81,264.42z"/>
		</g>
		<g>
			<path class="st0" d="M254.46,213.34c0,0,29.53-83.01,5.03,0.87L254.46,213.34z"/>
			<path class="st0" d="M256.98,212.59c0,0,80.88,34.95-1.2,4.96L256.98,212.59z"/>
			<path class="st0" d="M261.72,210.54c0,0,77.04-42.76,3.2,3.98L261.72,210.54z"/>
		</g>
		<g>
			<path class="st0" d="M350.76,163.03c0,0,29.53-83.01,5.03,0.87L350.76,163.03z"/>
			<path class="st0" d="M353.28,162.28c0,0,80.88,34.95-1.2,4.96L353.28,162.28z"/>
			<path class="st0" d="M358.02,160.23c0,0,77.04-42.76,3.2,3.98L358.02,160.23z"/>
		</g>
		<g>
			<path class="st0" d="M232.15,189.88c0,0,29.53-83.01,5.03,0.87L232.15,189.88z"/>
			<path class="st0" d="M234.67,189.13c0,0,80.88,34.95-1.2,4.96L234.67,189.13z"/>
			<path class="st0" d="M239.41,187.08c0,0,77.04-42.76,3.2,3.98L239.41,187.08z"/>
		</g>
		<g>
			<path class="st0" d="M123.18,269.25c0,0,5.76-87.92,5.08-0.54L123.18,269.25z"/>
			<path class="st0" d="M125.39,267.84c0,0,87.34,11.56,0.2,5.1L125.39,267.84z"/>
			<path class="st0" d="M129.39,264.58c0,0,62.45-62.15,4.16,2.95L129.39,264.58z"/>
		</g>
		<g>
			<path class="st0" d="M172.38,214.14c0,0,15.9-86.66,5.1,0.05L172.38,214.14z"/>
			<path class="st0" d="M174.74,213c0,0,85.42,21.6-0.39,5.09L174.74,213z"/>
			<path class="st0" d="M179.1,210.22c0,0,69.23-54.5,3.79,3.41L179.1,210.22z"/>
		</g>
		<g>
			<path class="st0" d="M99.88,318.96c0,0-6.38-87.87,4.95-1.23L99.88,318.96z"/>
			<path class="st0" d="M101.88,317.26c0,0,88.1-0.56,0.9,5.02L101.88,317.26z"/>
			<path class="st0" d="M105.39,313.48c0,0,53.31-70.15,4.53,2.35L105.39,313.48z"/>
		</g>
		<g>
			<path class="st0" d="M45.31,377.87c0,0-14.66-86.88,4.81-1.69L45.31,377.87z"/>
			<path class="st0" d="M47.14,375.99c0,0,87.66-8.88,1.37,4.92L47.14,375.99z"/>
			<path class="st0" d="M50.28,371.89c0,0,46.44-74.87,4.73,1.91L50.28,371.89z"/>
		</g>
		<g>
			<path class="st0" d="M23.31,384.16c0,0-22.19-85.27,4.65-2.11L23.31,384.16z"/>
			<path class="st0" d="M24.96,382.13c0,0,86.55-16.5,1.8,4.78L24.96,382.13z"/>
			<path class="st0" d="M27.74,377.77c0,0,39.72-78.64,4.88,1.49L27.74,377.77z"/>
		</g>
		<g>
			<path class="st0" d="M27.12,321.7c0,0-24.18-84.72,4.6-2.21L27.12,321.7z"/>
			<path class="st0" d="M28.73,319.62c0,0,86.14-18.52,1.91,4.73L28.73,319.62z"/>
			<path class="st0" d="M31.4,315.2c0,0,37.88-79.55,4.91,1.38L31.4,315.2z"/>
		</g>
		<g>
			<path class="st0" d="M66.58,339.42c0,0-24.18-84.72,4.6-2.21L66.58,339.42z"/>
			<path class="st0" d="M68.19,337.35c0,0,86.14-18.52,1.91,4.73L68.19,337.35z"/>
			<path class="st0" d="M70.86,332.92c0,0,37.88-79.55,4.91,1.38L70.86,332.92z"/>
		</g>
		<g>
			<path class="st0" d="M68.09,268.16c0,0-13.5-87.07,4.84-1.63L68.09,268.16z"/>
			<path class="st0" d="M69.95,266.3c0,0,87.77-7.71,1.31,4.93L69.95,266.3z"/>
			<path class="st0" d="M73.14,262.25c0,0,47.44-74.25,4.71,1.98L73.14,262.25z"/>
		</g>
		<g>
			<path class="st0" d="M118.24,233.27c0,0-8.34-87.71,4.92-1.34L118.24,233.27z"/>
			<path class="st0" d="M120.21,231.52c0,0,88.07-2.52,1.01,5L120.21,231.52z"/>
			<path class="st0" d="M123.64,227.66c0,0,51.74-71.32,4.58,2.25L123.64,227.66z"/>
		</g>
		<g>
			<path class="st0" d="M96.67,302.67c0,0-8.34-87.71,4.92-1.34L96.67,302.67z"/>
			<path class="st0" d="M98.63,300.93c0,0,88.07-2.52,1.01,5L98.63,300.93z"/>
			<path class="st0" d="M102.06,297.07c0,0,51.74-71.32,4.58,2.25L102.06,297.07z"/>
		</g>
		<g>
			<path class="st0" d="M46.01,315.57c0,0-8.34-87.71,4.92-1.34L46.01,315.57z"/>
			<path class="st0" d="M47.97,313.83c0,0,88.07-2.52,1.01,5L47.97,313.83z"/>
			<path class="st0" d="M51.4,309.97c0,0,51.74-71.32,4.58,2.25L51.4,309.97z"/>
		</g>
		<g>
			<path class="st0" d="M10.8,398.27c0,0-23.49-84.92,4.62-2.18L10.8,398.27z"/>
			<path class="st0" d="M12.42,396.21c0,0,86.28-17.83,1.87,4.75L12.42,396.21z"/>
			<path class="st0" d="M15.13,391.81c0,0,38.51-79.24,4.9,1.42L15.13,391.81z"/>
		</g>
	</g>
	<path class="st2" d="M520.17,335.67c-4.29-2.36,3.73-20.71,3.72-21.81c-0.01-1.09,92.97-40.14,92.97-40.14l-89.45,36.09
		c-0.84,0.51-1.67,0.93-2.49,1.29c-8.95,3.9-15.45-4.72-15.45-4.72L520.17,335.67z"/>
	<g>
		<circle class="st2" cx="624.3" cy="270.48" r="159.94"/>
		<circle class="st3" cx="624.81" cy="270.65" r="150.86"/>
		<circle class="st4" cx="624.77" cy="271.23" r="129"/>
		<path class="st2" d="M582.34,393.36c-4.67,0.49-9.41-19.98-10.07-20.91s48.69-86.8,48.69-86.8l-48.4,81.26
			c-0.34,0.93-0.72,1.78-1.14,2.57c-4.53,8.6-19.55,4.31-19.55,4.31L582.34,393.36z"/>
		<path class="st2" d="M657.41,395.53c-3.43,3.18-14.66-9.16-15.68-9.49c-1.02-0.33-10.43-97.14-10.43-97.14l7.69,92.68
			c0.23,0.93,0.38,1.81,0.48,2.66c1.04,9.36-11.98,15.1-11.98,15.1L657.41,395.53z"/>
		<path class="st2" d="M723.35,353.34c-0.87,4.69-19.93,2.77-20.92,3.11c-0.99,0.34-64-74.23-64-74.23l59.28,72.18
			c0.71,0.63,1.34,1.27,1.91,1.92c6.19,7.14,0.28,15.77,0.28,15.77L723.35,353.34z"/>
		<path class="st2" d="M752.62,280.2c1.92,4.25-14.07,14.1-14.73,14.99c-0.66,0.89-97.34-18.25-97.34-18.25l92.1,19.6
			c0.97,0.05,1.88,0.16,2.73,0.31c9.39,1.73,9.22,12.24,9.22,12.24L752.62,280.2z"/>
		<path class="st2" d="M735.21,207.3c4.07,2.31-3.95,21.09-3.96,22.2c-0.01,1.11-89.85,42.44-89.85,42.44l86.4-38.26
			c0.82-0.53,1.62-0.98,2.41-1.35c8.65-4.12,16.43,5.45,16.43,5.45L735.21,207.3z"/>
		<path class="st2" d="M682.1,157.03c4.89-0.72,8.59,17.25,9.22,18.04c0.62,0.79-54.57,82.28-54.57,82.28l53.93-77.32
			c0.41-0.85,0.86-1.64,1.34-2.36c5.23-7.95,17.08-1.92,17.08-1.92L682.1,157.03z"/>
		<path class="st2" d="M516.08,340.28c-4.29-2.36,3.73-20.71,3.72-21.81c-0.01-1.09,92.97-40.14,92.97-40.14l-89.45,36.09
			c-0.84,0.51-1.67,0.93-2.49,1.29c-8.95,3.9-15.45-4.72-15.45-4.72L516.08,340.28z"/>
		<path class="st2" d="M601.94,145.11c3.4-3.23,17.35,9.23,18.32,9.53c0.98,0.3,7.65,95.82,7.65,95.82l-5.11-91.47
			c-0.2-0.91-0.33-1.78-0.4-2.62c-0.77-9.23,8.89-12.71,8.89-12.71L601.94,145.11z"/>
		<path class="st2" d="M532.21,183.41c0.85-4.94,19.65-2.89,20.62-3.24s63.24,78.28,63.24,78.28l-58.58-76.11
			c-0.7-0.66-1.33-1.34-1.88-2.03c-6.12-7.52,0.62-15.44,0.62-15.44L532.21,183.41z"/>
		<path class="st2" d="M496.71,262.2c-2.08-4.43,15.19-14.57,15.83-15.46c0.64-0.89,98.81,22.17,98.81,22.17l-93.58-23.38
			c-0.98-0.08-1.9-0.23-2.77-0.42c-9.53-2.11-9.73-12.9-9.73-12.9L496.71,262.2z"/>
	</g>
	<circle class="st3" cx="626.54" cy="265.04" r="21.76"/>
	<g>
		<path class="st2" d="M546.57,265.51l4.01-1.77c24.48,3.26,15.5,39.17,15.5,39.17c2.72,20.13-21.22,63.11-21.22,63.11
			C524.34,401.65,487,416.95,487,416.95c-68.34,23.66-110.77,9.72-110.77,9.72c-66.64-13.33-93.57-62.29-93.57-62.29
			c-23.94-48.14-4.62-80.79-4.62-80.79c10.88-22.58,27.47-17.68,27.47-17.68S390.17,387.1,546.57,265.51z"/>
		<path class="st5" d="M528.01,275.37c23.9-20.36,30.19,6.8,30.19,6.8c2.45,20.13-9.79,55.76-9.79,55.76
			c-2.18,24.75-43.25,60.11-43.25,60.11c-35.63,24.75-75.35,25.3-75.35,25.3c-28.83,2.99-73.99-7.34-73.99-7.34
			c-37.54-11.15-62.56-51.68-62.56-51.68c-39.44-60.66,5.71-90.58,5.71-90.58c12.51-9.79,18.5,7.62,18.5,7.62
			S408.6,377.1,528.01,275.37z"/>
		<path class="st6" d="M317.1,281.42c3.49,3.1,18.23,10.18,79.39,6.74l31.01,5.98l33.18-8.7c0,0,29.92,5.44,70.18-14.14
			c0,0,23.12,1.09-18.77,85.68c0,0-25.84,28.83-51.41,35.36c0,0-26.93,15.23-74.8,0c0,0-23.12,3.54-57.12-35.09
			c0,0-42.12-41.86-14.09-75.6C315.28,280.92,316.4,280.8,317.1,281.42z"/>
		<path class="st2" d="M339.98,368.2c-4.07-0.81-1.95-16.13-2.22-16.93c-0.27-0.81,66.14-49.98,66.14-49.98l-64.24,46.22
			c-0.56,0.56-1.14,1.06-1.72,1.5c-6.36,4.84-13.74-0.11-13.74-0.11L339.98,368.2z"/>
		<path class="st2" d="M517.88,343.99c0.07,3.41-11.17,2.7-11.77,3.06c-0.6,0.36-52.15-44.13-52.15-44.13l48.77,43.28
			c0.55,0.35,1.06,0.72,1.51,1.11c5.04,4.24,1.94,12.73,1.94,12.73L517.88,343.99z"/>
		<path class="st2" d="M471.09,388.32c2.64,2.64-11.8-3.88-12.57-3.94s-18.44-72.5-18.44-72.5l15.96,69.59
			c0.27,0.67,0.48,1.32,0.64,1.95c1.8,6.98-7.09,13.05-7.09,13.05S470.27,387.51,471.09,388.32z"/>
		<path class="st2" d="M400.92,396.44c-3.58,1.13-7.09-12.79-7.66-13.33c-0.57-0.53,29.96-69.32,29.96-69.32l-30.15,65.45
			c-0.2,0.7-0.43,1.35-0.69,1.96c-2.87,6.69-16.22,9.57-16.22,9.57L400.92,396.44z"/>
		<path class="st7" d="M397.92,286.93c0,0,4.62,21.22,31.01,26.11c0,0,26.93,3.26,33.73-28.83"/>
	</g>
</g>
</svg>
