<?xml version="1.0" encoding="utf-8"?>
<!-- Generator: Adobe Illustrator 26.2.1, SVG Export Plug-In . SVG Version: 6.00 Build 0)  -->
<svg version="1.1" id="Layer_2_00000094586120407299442210000003744946233102758051_"
	 xmlns="http://www.w3.org/2000/svg" xmlns:xlink="http://www.w3.org/1999/xlink" x="0px" y="0px" viewBox="0 0 516.76 323.41"
	 style="enable-background:new 0 0 516.76 323.41;" xml:space="preserve">
<style type="text/css">
	.st0{fill:#EFB614;stroke:#EFB614;stroke-width:3.1961;stroke-miterlimit:10;}
	.st1{fill:#FFFFFF;stroke:#FFFFFF;stroke-width:3.1961;stroke-miterlimit:10;}
	.st2{fill:#E89746;stroke:#EFB614;stroke-width:9.5882;stroke-miterlimit:10;}
	.st3{fill:#F7F3F0;stroke:#F7F9F7;stroke-width:3.1961;stroke-miterlimit:10;}
	.st4{fill:#E89746;stroke:#EFB614;stroke-width:6.3921;stroke-miterlimit:10;}
	.st5{fill:#F4F0ED;stroke:#EFB614;stroke-width:3.1961;stroke-miterlimit:10;}
</style>
<path class="st0" d="M251.09,226.73c-4.29-2.36,3.73-20.71,3.72-21.81c-0.01-1.09,92.97-40.14,92.97-40.14l-89.45,36.09
	c-0.84,0.51-1.67,0.93-2.49,1.29c-8.95,3.9-15.45-4.72-15.45-4.72L251.09,226.73z"/>
<g>
	<circle class="st0" cx="355.22" cy="161.54" r="159.94"/>
	<circle class="st1" cx="355.73" cy="161.71" r="150.86"/>
	<circle class="st2" cx="355.69" cy="162.29" r="129"/>
	<path class="st0" d="M313.26,284.42c-4.67,0.49-9.41-19.98-10.07-20.91s48.69-86.8,48.69-86.8l-48.4,81.26
		c-0.34,0.93-0.72,1.78-1.14,2.57c-4.53,8.6-19.55,4.31-19.55,4.31L313.26,284.42z"/>
	<path class="st0" d="M388.33,286.59c-3.43,3.18-14.66-9.16-15.68-9.49s-10.43-97.14-10.43-97.14l7.69,92.68
		c0.23,0.93,0.38,1.81,0.48,2.66c1.04,9.36-11.98,15.1-11.98,15.1L388.33,286.59z"/>
	<path class="st0" d="M454.27,244.4c-0.87,4.69-19.93,2.77-20.92,3.11s-64-74.23-64-74.23l59.28,72.18
		c0.71,0.63,1.34,1.27,1.91,1.92c6.19,7.14,0.28,15.77,0.28,15.77L454.27,244.4z"/>
	<path class="st0" d="M483.54,171.26c1.92,4.25-14.07,14.1-14.73,14.99c-0.66,0.89-97.34-18.25-97.34-18.25l92.1,19.6
		c0.97,0.05,1.88,0.16,2.73,0.31c9.39,1.73,9.22,12.24,9.22,12.24L483.54,171.26z"/>
	<path class="st0" d="M466.13,98.36c4.07,2.31-3.95,21.09-3.96,22.2S372.32,163,372.32,163l86.4-38.26
		c0.82-0.53,1.62-0.98,2.41-1.35c8.65-4.12,16.43,5.45,16.43,5.45L466.13,98.36z"/>
	<path class="st0" d="M413.02,48.09c4.89-0.72,8.59,17.25,9.22,18.04c0.62,0.79-54.57,82.28-54.57,82.28l53.93-77.32
		c0.41-0.85,0.86-1.64,1.34-2.36c5.23-7.95,17.08-1.92,17.08-1.92L413.02,48.09z"/>
	<path class="st0" d="M247,231.34c-4.29-2.36,3.73-20.71,3.72-21.81c-0.01-1.09,92.97-40.14,92.97-40.14l-89.45,36.09
		c-0.84,0.51-1.67,0.93-2.49,1.29c-8.95,3.9-15.45-4.72-15.45-4.72L247,231.34z"/>
	<path class="st0" d="M332.86,36.17c3.4-3.23,17.35,9.23,18.32,9.53c0.98,0.3,7.65,95.82,7.65,95.82l-5.11-91.47
		c-0.2-0.91-0.33-1.78-0.4-2.62c-0.77-9.23,8.89-12.71,8.89-12.71L332.86,36.17z"/>
	<path class="st0" d="M263.13,74.47c0.85-4.94,19.65-2.89,20.62-3.24s63.24,78.28,63.24,78.28L288.41,73.4
		c-0.7-0.66-1.33-1.34-1.88-2.03c-6.12-7.52,0.62-15.44,0.62-15.44L263.13,74.47z"/>
	<path class="st0" d="M227.63,153.26c-2.08-4.43,15.19-14.57,15.83-15.46c0.64-0.89,98.81,22.17,98.81,22.17l-93.58-23.38
		c-0.98-0.08-1.9-0.23-2.77-0.42c-9.53-2.11-9.73-12.9-9.73-12.9L227.63,153.26z"/>
</g>
<circle class="st1" cx="357.46" cy="156.1" r="21.76"/>
<g>
	<path class="st0" d="M277.49,156.57l4.01-1.77c24.48,3.26,15.5,39.17,15.5,39.17c2.72,20.13-21.22,63.11-21.22,63.11
		c-20.52,35.63-57.86,50.93-57.86,50.93c-68.34,23.66-110.77,9.72-110.77,9.72c-66.64-13.33-93.57-62.29-93.57-62.29
		c-23.94-48.14-4.62-80.79-4.62-80.79c10.88-22.58,27.47-17.68,27.47-17.68S121.09,278.16,277.49,156.57z"/>
	<path class="st3" d="M258.93,166.43c23.9-20.36,30.19,6.8,30.19,6.8c2.45,20.13-9.79,55.76-9.79,55.76
		c-2.18,24.75-43.25,60.11-43.25,60.11c-35.63,24.75-75.35,25.3-75.35,25.3c-28.83,2.99-73.99-7.34-73.99-7.34
		c-37.54-11.15-62.56-51.68-62.56-51.68c-39.44-60.66,5.71-90.58,5.71-90.58c12.51-9.79,18.5,7.62,18.5,7.62
		S139.52,268.16,258.93,166.43z"/>
	<path class="st4" d="M48.02,172.48c3.49,3.1,18.23,10.18,79.39,6.74l31.01,5.98l33.18-8.7c0,0,29.92,5.44,70.18-14.14
		c0,0,23.12,1.09-18.77,85.68c0,0-25.84,28.83-51.41,35.36c0,0-26.93,15.23-74.8,0c0,0-23.12,3.54-57.12-35.09
		c0,0-42.12-41.86-14.09-75.6C46.2,171.98,47.32,171.86,48.02,172.48z"/>
	<path class="st0" d="M70.9,259.26c-4.07-0.81-1.95-16.13-2.22-16.93c-0.27-0.81,66.14-49.98,66.14-49.98l-64.24,46.22
		c-0.56,0.56-1.14,1.06-1.72,1.5c-6.36,4.84-13.74-0.11-13.74-0.11L70.9,259.26z"/>
	<path class="st0" d="M248.8,235.05c0.07,3.41-11.17,2.7-11.77,3.06c-0.6,0.36-52.15-44.13-52.15-44.13l48.77,43.28
		c0.55,0.35,1.06,0.72,1.51,1.11c5.04,4.24,1.94,12.73,1.94,12.73L248.8,235.05z"/>
	<path class="st0" d="M202.01,279.38c2.64,2.64-11.8-3.88-12.57-3.94S171,202.94,171,202.94l15.96,69.59
		c0.27,0.67,0.48,1.32,0.64,1.95c1.8,6.98-7.09,13.05-7.09,13.05S201.19,278.57,202.01,279.38z"/>
	<path class="st0" d="M131.84,287.5c-3.58,1.13-7.09-12.79-7.66-13.33c-0.57-0.53,29.96-69.32,29.96-69.32l-30.15,65.45
		c-0.2,0.7-0.43,1.35-0.69,1.96c-2.87,6.69-16.22,9.57-16.22,9.57L131.84,287.5z"/>
	<path class="st5" d="M128.84,177.99c0,0,4.62,21.22,31.01,26.11c0,0,26.93,3.26,33.73-28.83"/>
</g>
</svg>
